<svg width="352" height="80" viewBox="0 0 352 80" fill="none" xmlns="http://www.w3.org/2000/svg">
<path d="M344.741 28.594C347.654 30.8229 349.734 33.1332 350.902 35.5062L350.453 35.7269C351.149 37.1411 351.5 38.5654 351.5 40C351.5 41.4346 351.149 42.8589 350.453 44.2731L350.902 44.4938C349.734 46.8668 347.654 49.1771 344.741 51.4061L344.437 51.009C342.277 52.6622 339.644 54.2767 336.568 55.8429L336.795 56.2884C334.238 57.59 331.385 58.8549 328.254 60.0786L328.072 59.6129C325.352 60.676 322.419 61.7086 319.288 62.7076L319.44 63.184C316.605 64.0884 313.608 64.9648 310.46 65.8111L310.33 65.3283C307.437 66.106 304.414 66.8584 301.27 67.5837L301.383 68.0709C298.444 68.7489 295.399 69.4032 292.255 70.0323L292.157 69.5421C289.185 70.1368 286.123 70.7091 282.977 71.2579L283.063 71.7504C280.059 72.2746 276.977 72.7771 273.824 73.2572L273.749 72.7629C270.738 73.2213 267.661 73.6591 264.521 74.0755L264.587 74.5712C261.552 74.9738 258.458 75.3564 255.311 75.7181L255.254 75.2214C252.205 75.5717 249.106 75.9024 245.959 76.2129L246.008 76.7105C242.945 77.0126 239.837 77.2954 236.687 77.5584L236.646 77.0602C233.583 77.3159 230.48 77.5528 227.34 77.7702L227.374 78.269C224.302 78.4818 221.193 78.6761 218.051 78.8511L218.024 78.3519C214.946 78.5234 211.836 78.6764 208.697 78.8106L208.718 79.3101C205.633 79.442 202.519 79.5555 199.378 79.6502L199.363 79.1504C196.275 79.2436 193.162 79.3185 190.025 79.3748L190.034 79.8747C186.94 79.9302 183.824 79.9675 180.687 79.9861L180.684 79.4861C179.128 79.4953 177.566 79.5 176 79.5C174.434 79.5 172.872 79.4953 171.316 79.4861L171.313 79.9861C168.176 79.9675 165.06 79.9302 161.966 79.8747L161.975 79.3748C158.838 79.3185 155.725 79.2436 152.637 79.1504L152.622 79.6502C149.481 79.5555 146.367 79.442 143.282 79.3101L143.303 78.8106C140.164 78.6764 137.054 78.5234 133.976 78.3519L133.949 78.8511C130.807 78.676 127.698 78.4818 124.626 78.269L124.66 77.7702C121.52 77.5528 118.417 77.3159 115.354 77.0602L115.313 77.5584C112.163 77.2954 109.055 77.0126 105.992 76.7104L106.041 76.2129C102.894 75.9024 99.7945 75.5717 96.7463 75.2214L96.6892 75.7181C93.5416 75.3564 90.4483 74.9738 87.4129 74.5712L87.4786 74.0755C84.3394 73.6591 81.2623 73.2213 78.251 72.7629L78.1758 73.2572C75.0226 72.7771 71.9415 72.2746 68.9369 71.7504L69.0228 71.2579C65.8769 70.7091 62.8154 70.1368 59.8433 69.5421L59.7452 70.0323C56.601 69.4032 53.5564 68.7489 50.6175 68.0709L50.7299 67.5837C47.5856 66.8584 44.5632 66.106 41.67 65.3282L41.5402 65.8111C38.3918 64.9648 35.3953 64.0884 32.5603 63.184L32.7123 62.7076C29.5806 61.7086 26.6484 60.676 23.9282 59.6129L23.7462 60.0786C20.6153 58.8549 17.7617 57.59 15.2052 56.2884L15.4321 55.8428C12.356 54.2767 9.72302 52.6622 7.56279 51.009L7.25891 51.406C4.34639 49.1771 2.26559 46.8668 1.09828 44.4938L1.54694 44.2731C0.851325 42.8589 0.5 41.4346 0.5 40C0.5 38.5654 0.851325 37.1411 1.54694 35.7269L1.09828 35.5062C2.26559 33.1332 4.34639 30.8229 7.25892 28.5939L7.56279 28.991C9.72303 27.3378 12.3561 25.7232 15.4321 24.1571L15.2052 23.7116C17.7617 22.41 20.6153 21.1451 23.7462 19.9214L23.9282 20.3871C26.6484 19.324 29.5806 18.2914 32.7123 17.2924L32.5603 16.816C35.3954 15.9116 38.3918 15.0352 41.5402 14.1889L41.67 14.6717C44.5632 13.894 47.5857 13.1416 50.7299 12.4163L50.6175 11.9291C53.5564 11.2511 56.601 10.5968 59.7452 9.96765L59.8433 10.4579C62.8154 9.8632 65.8769 9.29087 69.0228 8.74212L68.9369 8.24956C71.9415 7.72545 75.0226 7.22287 78.1758 6.74284L78.2511 7.23714C81.2623 6.77873 84.3394 6.34088 87.4787 5.92448L87.4129 5.42882C90.4484 5.02618 93.5416 4.64361 96.6892 4.28189L96.7463 4.77862C99.7946 4.42831 102.894 4.09757 106.041 3.78713L105.992 3.28955C109.055 2.98745 112.163 2.70456 115.313 2.44157L115.354 2.93983C118.417 2.68413 121.52 2.44724 124.66 2.22977L124.626 1.73097C127.698 1.51816 130.807 1.32394 133.949 1.1489L133.976 1.64812C137.054 1.47664 140.164 1.32356 143.303 1.18943L143.282 0.689888C146.367 0.558048 149.481 0.44451 152.622 0.349789L152.637 0.849562C155.725 0.756411 158.838 0.681471 161.975 0.62523L161.966 0.125311C165.06 0.0698388 168.176 0.0325487 171.313 0.0139104L171.316 0.513902C172.872 0.504653 174.434 0.5 176 0.5C177.566 0.5 179.128 0.504653 180.684 0.513902L180.687 0.0139104C183.824 0.0325486 186.94 0.0698388 190.034 0.125311L190.025 0.62523C193.162 0.681471 196.275 0.756411 199.363 0.849562L199.378 0.349789C202.519 0.44451 205.633 0.558048 208.718 0.689888L208.697 1.18943C211.836 1.32356 214.946 1.47664 218.024 1.64812L218.051 1.1489C221.193 1.32395 224.302 1.51816 227.374 1.73097L227.34 2.22978C230.48 2.44724 233.583 2.68414 236.646 2.93984L236.687 2.44157C239.837 2.70457 242.945 2.98745 246.008 3.28955L245.959 3.78713C249.106 4.09757 252.205 4.42831 255.254 4.77862L255.311 4.28189C258.458 4.64361 261.552 5.02618 264.587 5.42882L264.521 5.92448C267.661 6.34088 270.738 6.77873 273.749 7.23714L273.824 6.74284C276.977 7.22287 280.059 7.72545 283.063 8.24956L282.977 8.74212C286.123 9.29087 289.185 9.8632 292.157 10.4579L292.255 9.96765C295.399 10.5968 298.444 11.2511 301.383 11.9291L301.27 12.4163C304.414 13.1416 307.437 13.894 310.33 14.6718L310.46 14.1889C313.608 15.0352 316.605 15.9116 319.44 16.816L319.288 17.2924C322.419 18.2914 325.352 19.324 328.072 20.3871L328.254 19.9214C331.385 21.1451 334.238 22.41 336.795 23.7116L336.568 24.1571C339.644 25.7233 342.277 27.3378 344.437 28.991L344.741 28.594Z" stroke="url(#paint0_linear_168_3226)" stroke-dasharray="9 9"/>
<defs>
<linearGradient id="paint0_linear_168_3226" x1="176" y1="80" x2="176" y2="20" gradientUnits="userSpaceOnUse">
<stop stop-color="white"/>
<stop offset="1" stop-color="#999999" stop-opacity="0"/>
</linearGradient>
</defs>
</svg>
