<svg width="652" height="388" viewBox="0 0 652 388" fill="none" xmlns="http://www.w3.org/2000/svg">
<g filter="url(#filter0_f_1307_14965)">
<rect width="130" height="300" transform="matrix(-1 0 0 1 244 44)" fill="url(#paint0_linear_1307_14965)"/>
</g>
<g filter="url(#filter1_f_1307_14965)">
<rect x="44" y="44" width="47.8125" height="47.8125" fill="url(#paint1_linear_1307_14965)" fill-opacity="0.35"/>
</g>
<rect x="44" y="44" width="47.8125" height="47.8125" stroke="url(#paint2_linear_1307_14965)" stroke-opacity="0.75"/>
<circle cx="68.0347" cy="68.0347" r="2.47222" fill="#24FCF1"/>
<g filter="url(#filter2_f_1307_14965)">
<rect x="44" y="107.047" width="47.8125" height="47.8125" fill="url(#paint3_linear_1307_14965)" fill-opacity="0.35"/>
</g>
<rect x="44" y="107.047" width="47.8125" height="47.8125" stroke="url(#paint4_linear_1307_14965)" stroke-opacity="0.75"/>
<circle cx="68.0347" cy="130.847" r="2.47222" fill="#24FCF1"/>
<g filter="url(#filter3_f_1307_14965)">
<rect x="44" y="170.094" width="47.8125" height="47.8125" fill="url(#paint5_linear_1307_14965)" fill-opacity="0.35"/>
</g>
<rect x="44" y="170.094" width="47.8125" height="47.8125" stroke="url(#paint6_linear_1307_14965)" stroke-opacity="0.75"/>
<circle cx="68.0347" cy="194.597" r="2.47222" fill="#24FCF1"/>
<g filter="url(#filter4_f_1307_14965)">
<rect x="44" y="233.141" width="47.8125" height="47.8125" fill="url(#paint7_linear_1307_14965)" fill-opacity="0.35"/>
</g>
<rect x="44" y="233.141" width="47.8125" height="47.8125" stroke="url(#paint8_linear_1307_14965)" stroke-opacity="0.75"/>
<circle cx="68.0347" cy="257.41" r="2.47222" fill="#24FCF1"/>
<g filter="url(#filter5_f_1307_14965)">
<rect x="44" y="296.188" width="47.8125" height="47.8125" fill="url(#paint9_linear_1307_14965)" fill-opacity="0.35"/>
</g>
<rect x="44" y="296.188" width="47.8125" height="47.8125" stroke="url(#paint10_linear_1307_14965)" stroke-opacity="0.75"/>
<circle cx="68.0347" cy="320.222" r="2.47222" fill="#24FCF1"/>
<g filter="url(#filter6_f_1307_14965)">
<rect x="294.75" y="44" width="341.25" height="63.75" fill="url(#paint11_linear_1307_14965)"/>
</g>
<rect x="294.75" y="44" width="341.25" height="63.75" stroke="url(#paint12_linear_1307_14965)"/>
<circle cx="327.222" cy="76.4722" r="2.47222" fill="#ED30B8"/>
<circle cx="366.695" cy="76.4722" r="2.47222" fill="#ED30B8"/>
<circle cx="406.168" cy="76.4722" r="2.47222" fill="#ED30B8"/>
<circle cx="445.64" cy="76.4722" r="2.47222" fill="#ED30B8"/>
<circle cx="485.113" cy="76.4722" r="2.47222" fill="#ED30B8"/>
<circle cx="524.582" cy="76.4722" r="2.47222" fill="#ED30B8"/>
<circle cx="564.054" cy="76.4722" r="2.47222" fill="#ED30B8"/>
<circle cx="603.527" cy="76.4722" r="2.47222" fill="#ED30B8"/>
<g filter="url(#filter7_f_1307_14965)">
<rect width="341.25" height="63.75" transform="matrix(-1 0 0 1 636 122.75)" fill="url(#paint13_linear_1307_14965)"/>
</g>
<rect width="341.25" height="63.75" transform="matrix(-1 0 0 1 636 122.75)" stroke="url(#paint14_linear_1307_14965)"/>
<circle cx="2.47222" cy="2.47222" r="2.47222" transform="matrix(-1 0 0 1 606 152.75)" fill="#ED30B8"/>
<circle cx="2.47222" cy="2.47222" r="2.47222" transform="matrix(-1 0 0 1 566.527 152.75)" fill="#ED30B8"/>
<circle cx="2.47222" cy="2.47222" r="2.47222" transform="matrix(-1 0 0 1 527.055 152.75)" fill="#ED30B8"/>
<circle cx="2.47222" cy="2.47222" r="2.47222" transform="matrix(-1 0 0 1 487.582 152.75)" fill="#ED30B8"/>
<circle cx="2.47222" cy="2.47222" r="2.47222" transform="matrix(-1 0 0 1 448.109 152.75)" fill="#ED30B8"/>
<circle cx="2.47222" cy="2.47222" r="2.47222" transform="matrix(-1 0 0 1 408.641 152.75)" fill="#ED30B8"/>
<circle cx="2.47222" cy="2.47222" r="2.47222" transform="matrix(-1 0 0 1 369.168 152.75)" fill="#ED30B8"/>
<circle cx="2.47222" cy="2.47222" r="2.47222" transform="matrix(-1 0 0 1 329.695 152.75)" fill="#ED30B8"/>
<g filter="url(#filter8_f_1307_14965)">
<rect x="294.75" y="201.5" width="341.25" height="63.75" fill="url(#paint15_linear_1307_14965)"/>
</g>
<rect x="294.75" y="201.5" width="341.25" height="63.75" stroke="url(#paint16_linear_1307_14965)"/>
<circle cx="327.222" cy="233.972" r="2.47222" fill="#ED30B8"/>
<circle cx="366.695" cy="233.972" r="2.47222" fill="#ED30B8"/>
<circle cx="406.168" cy="233.972" r="2.47222" fill="#ED30B8"/>
<circle cx="445.64" cy="233.972" r="2.47222" fill="#ED30B8"/>
<circle cx="485.113" cy="233.972" r="2.47222" fill="#ED30B8"/>
<circle cx="524.582" cy="233.972" r="2.47222" fill="#ED30B8"/>
<circle cx="564.054" cy="233.972" r="2.47222" fill="#ED30B8"/>
<circle cx="603.527" cy="233.972" r="2.47222" fill="#ED30B8"/>
<g filter="url(#filter9_f_1307_14965)">
<rect width="341.25" height="63.75" transform="matrix(-1 0 0 1 636 280.25)" fill="url(#paint17_linear_1307_14965)"/>
</g>
<rect width="341.25" height="63.75" transform="matrix(-1 0 0 1 636 280.25)" stroke="url(#paint18_linear_1307_14965)"/>
<circle cx="2.47222" cy="2.47222" r="2.47222" transform="matrix(-1 0 0 1 606 310.25)" fill="#ED30B8"/>
<circle cx="2.47222" cy="2.47222" r="2.47222" transform="matrix(-1 0 0 1 566.527 310.25)" fill="#ED30B8"/>
<circle cx="2.47222" cy="2.47222" r="2.47222" transform="matrix(-1 0 0 1 527.055 310.25)" fill="#ED30B8"/>
<circle cx="2.47222" cy="2.47222" r="2.47222" transform="matrix(-1 0 0 1 487.582 310.25)" fill="#ED30B8"/>
<circle cx="2.47222" cy="2.47222" r="2.47222" transform="matrix(-1 0 0 1 448.109 310.25)" fill="#ED30B8"/>
<circle cx="2.47222" cy="2.47222" r="2.47222" transform="matrix(-1 0 0 1 408.641 310.25)" fill="#ED30B8"/>
<circle cx="2.47222" cy="2.47222" r="2.47222" transform="matrix(-1 0 0 1 369.168 310.25)" fill="#ED30B8"/>
<circle cx="2.47222" cy="2.47222" r="2.47222" transform="matrix(-1 0 0 1 329.695 310.25)" fill="#ED30B8"/>
<mask id="mask0_1307_14965" style="mask-type:alpha" maskUnits="userSpaceOnUse" x="170" y="61" width="125" height="266">
<rect x="170" y="61" width="125" height="266" fill="url(#paint19_linear_1307_14965)"/>
</mask>
<g mask="url(#mask0_1307_14965)">
<g filter="url(#filter10_f_1307_14965)">
<path d="M280.091 76.1825C280.191 75.9254 280.065 75.6353 279.807 75.5345L275.618 73.8922C275.361 73.7914 275.071 73.9181 274.97 74.1752C274.869 74.4323 274.996 74.7225 275.253 74.8232L278.977 76.283L277.517 80.0071C277.416 80.2642 277.543 80.5544 277.8 80.6551C278.057 80.7559 278.347 80.6292 278.448 80.3721L280.091 76.1825ZM176.443 179.357L205.234 124.321L204.348 123.857L175.557 178.893L176.443 179.357ZM236.083 95.5646L279.825 76.4582L279.425 75.5418L235.682 94.6482L236.083 95.5646ZM205.234 124.321C211.941 111.501 222.824 101.356 236.083 95.5646L235.682 94.6482C222.215 100.531 211.16 110.836 204.348 123.857L205.234 124.321Z" fill="url(#paint20_linear_1307_14965)"/>
<path d="M279.979 155.104C280.174 154.908 280.174 154.592 279.979 154.396L276.797 151.214C276.601 151.019 276.285 151.019 276.089 151.214C275.894 151.41 275.894 151.726 276.089 151.922L278.918 154.75L276.089 157.578C275.894 157.774 275.894 158.09 276.089 158.286C276.285 158.481 276.601 158.481 276.797 158.286L279.979 155.104ZM176.345 192.611L197.027 172.845L196.336 172.122L175.655 191.889L176.345 192.611ZM240.901 155.25H279.625V154.25H240.901V155.25ZM197.027 172.845C208.842 161.552 224.557 155.25 240.901 155.25V154.25C224.3 154.25 208.337 160.651 196.336 172.122L197.027 172.845Z" fill="url(#paint21_linear_1307_14965)"/>
<path d="M280.091 312.068C280.191 312.325 280.065 312.615 279.807 312.716L275.618 314.358C275.361 314.459 275.071 314.332 274.97 314.075C274.869 313.818 274.996 313.528 275.253 313.427L278.977 311.967L277.517 308.243C277.416 307.986 277.543 307.696 277.8 307.595C278.057 307.494 278.347 307.621 278.448 307.878L280.091 312.068ZM176.443 208.893L205.234 263.929L204.348 264.393L175.557 209.357L176.443 208.893ZM236.083 292.685L279.825 311.792L279.425 312.708L235.682 293.602L236.083 292.685ZM205.234 263.929C211.941 276.749 222.824 286.894 236.083 292.685L235.682 293.602C222.215 287.719 211.16 277.414 204.348 264.393L205.234 263.929Z" fill="url(#paint22_linear_1307_14965)"/>
<path d="M279.979 233.146C280.174 233.342 280.174 233.658 279.979 233.854L276.797 237.036C276.601 237.231 276.285 237.231 276.089 237.036C275.894 236.84 275.894 236.524 276.089 236.328L278.918 233.5L276.089 230.672C275.894 230.476 275.894 230.16 276.089 229.964C276.285 229.769 276.601 229.769 276.797 229.964L279.979 233.146ZM176.345 195.639L197.027 215.405L196.336 216.128L175.655 196.361L176.345 195.639ZM240.901 233H279.625V234H240.901V233ZM197.027 215.405C208.842 226.698 224.557 233 240.901 233V234C224.3 234 208.337 227.599 196.336 216.128L197.027 215.405Z" fill="url(#paint23_linear_1307_14965)"/>
</g>
<g filter="url(#filter11_f_1307_14965)">
<path d="M280.091 76.1825C280.191 75.9254 280.065 75.6353 279.807 75.5345L275.618 73.8922C275.361 73.7914 275.071 73.9181 274.97 74.1752C274.869 74.4323 274.996 74.7225 275.253 74.8232L278.977 76.283L277.517 80.0071C277.416 80.2642 277.543 80.5544 277.8 80.6551C278.057 80.7559 278.347 80.6292 278.448 80.3721L280.091 76.1825ZM176.443 179.357L205.234 124.321L204.348 123.857L175.557 178.893L176.443 179.357ZM236.083 95.5646L279.825 76.4582L279.425 75.5418L235.682 94.6482L236.083 95.5646ZM205.234 124.321C211.941 111.501 222.824 101.356 236.083 95.5646L235.682 94.6482C222.215 100.531 211.16 110.836 204.348 123.857L205.234 124.321Z" fill="url(#paint24_linear_1307_14965)"/>
<path d="M279.979 155.104C280.174 154.908 280.174 154.592 279.979 154.396L276.797 151.214C276.601 151.019 276.285 151.019 276.089 151.214C275.894 151.41 275.894 151.726 276.089 151.922L278.918 154.75L276.089 157.578C275.894 157.774 275.894 158.09 276.089 158.286C276.285 158.481 276.601 158.481 276.797 158.286L279.979 155.104ZM176.345 192.611L197.027 172.845L196.336 172.122L175.655 191.889L176.345 192.611ZM240.901 155.25H279.625V154.25H240.901V155.25ZM197.027 172.845C208.842 161.552 224.557 155.25 240.901 155.25V154.25C224.3 154.25 208.337 160.651 196.336 172.122L197.027 172.845Z" fill="url(#paint25_linear_1307_14965)"/>
<path d="M280.091 312.068C280.191 312.325 280.065 312.615 279.807 312.716L275.618 314.358C275.361 314.459 275.071 314.332 274.97 314.075C274.869 313.818 274.996 313.528 275.253 313.427L278.977 311.967L277.517 308.243C277.416 307.986 277.543 307.696 277.8 307.595C278.057 307.494 278.347 307.621 278.448 307.878L280.091 312.068ZM176.443 208.893L205.234 263.929L204.348 264.393L175.557 209.357L176.443 208.893ZM236.083 292.685L279.825 311.792L279.425 312.708L235.682 293.602L236.083 292.685ZM205.234 263.929C211.941 276.749 222.824 286.894 236.083 292.685L235.682 293.602C222.215 287.719 211.16 277.414 204.348 264.393L205.234 263.929Z" fill="url(#paint26_linear_1307_14965)"/>
<path d="M279.979 233.146C280.174 233.342 280.174 233.658 279.979 233.854L276.797 237.036C276.601 237.231 276.285 237.231 276.089 237.036C275.894 236.84 275.894 236.524 276.089 236.328L278.918 233.5L276.089 230.672C275.894 230.476 275.894 230.16 276.089 229.964C276.285 229.769 276.601 229.769 276.797 229.964L279.979 233.146ZM176.345 195.639L197.027 215.405L196.336 216.128L175.655 196.361L176.345 195.639ZM240.901 233H279.625V234H240.901V233ZM197.027 215.405C208.842 226.698 224.557 233 240.901 233V234C224.3 234 208.337 227.599 196.336 216.128L197.027 215.405Z" fill="url(#paint27_linear_1307_14965)"/>
</g>
<g filter="url(#filter12_f_1307_14965)">
<path d="M280.091 76.1825C280.191 75.9254 280.065 75.6353 279.807 75.5345L275.618 73.8922C275.361 73.7914 275.071 73.9181 274.97 74.1752C274.869 74.4323 274.996 74.7225 275.253 74.8232L278.977 76.283L277.517 80.0071C277.416 80.2642 277.543 80.5544 277.8 80.6551C278.057 80.7559 278.347 80.6292 278.448 80.3721L280.091 76.1825ZM176.443 179.357L205.234 124.321L204.348 123.857L175.557 178.893L176.443 179.357ZM236.083 95.5646L279.825 76.4582L279.425 75.5418L235.682 94.6482L236.083 95.5646ZM205.234 124.321C211.941 111.501 222.824 101.356 236.083 95.5646L235.682 94.6482C222.215 100.531 211.16 110.836 204.348 123.857L205.234 124.321Z" fill="url(#paint28_linear_1307_14965)"/>
<path d="M279.979 155.104C280.174 154.908 280.174 154.592 279.979 154.396L276.797 151.214C276.601 151.019 276.285 151.019 276.089 151.214C275.894 151.41 275.894 151.726 276.089 151.922L278.918 154.75L276.089 157.578C275.894 157.774 275.894 158.09 276.089 158.286C276.285 158.481 276.601 158.481 276.797 158.286L279.979 155.104ZM176.345 192.611L197.027 172.845L196.336 172.122L175.655 191.889L176.345 192.611ZM240.901 155.25H279.625V154.25H240.901V155.25ZM197.027 172.845C208.842 161.552 224.557 155.25 240.901 155.25V154.25C224.3 154.25 208.337 160.651 196.336 172.122L197.027 172.845Z" fill="url(#paint29_linear_1307_14965)"/>
<path d="M280.091 312.068C280.191 312.325 280.065 312.615 279.807 312.716L275.618 314.358C275.361 314.459 275.071 314.332 274.97 314.075C274.869 313.818 274.996 313.528 275.253 313.427L278.977 311.967L277.517 308.243C277.416 307.986 277.543 307.696 277.8 307.595C278.057 307.494 278.347 307.621 278.448 307.878L280.091 312.068ZM176.443 208.893L205.234 263.929L204.348 264.393L175.557 209.357L176.443 208.893ZM236.083 292.685L279.825 311.792L279.425 312.708L235.682 293.602L236.083 292.685ZM205.234 263.929C211.941 276.749 222.824 286.894 236.083 292.685L235.682 293.602C222.215 287.719 211.16 277.414 204.348 264.393L205.234 263.929Z" fill="url(#paint30_linear_1307_14965)"/>
<path d="M279.979 233.146C280.174 233.342 280.174 233.658 279.979 233.854L276.797 237.036C276.601 237.231 276.285 237.231 276.089 237.036C275.894 236.84 275.894 236.524 276.089 236.328L278.918 233.5L276.089 230.672C275.894 230.476 275.894 230.16 276.089 229.964C276.285 229.769 276.601 229.769 276.797 229.964L279.979 233.146ZM176.345 195.639L197.027 215.405L196.336 216.128L175.655 196.361L176.345 195.639ZM240.901 233H279.625V234H240.901V233ZM197.027 215.405C208.842 226.698 224.557 233 240.901 233V234C224.3 234 208.337 227.599 196.336 216.128L197.027 215.405Z" fill="url(#paint31_linear_1307_14965)"/>
</g>
<g filter="url(#filter13_f_1307_14965)">
<path d="M280.091 76.1825C280.191 75.9254 280.065 75.6353 279.807 75.5345L275.618 73.8922C275.361 73.7914 275.071 73.9181 274.97 74.1752C274.869 74.4323 274.996 74.7225 275.253 74.8232L278.977 76.283L277.517 80.0071C277.416 80.2642 277.543 80.5544 277.8 80.6551C278.057 80.7559 278.347 80.6292 278.448 80.3721L280.091 76.1825ZM176.443 179.357L205.234 124.321L204.348 123.857L175.557 178.893L176.443 179.357ZM236.083 95.5646L279.825 76.4582L279.425 75.5418L235.682 94.6482L236.083 95.5646ZM205.234 124.321C211.941 111.501 222.824 101.356 236.083 95.5646L235.682 94.6482C222.215 100.531 211.16 110.836 204.348 123.857L205.234 124.321Z" fill="url(#paint32_linear_1307_14965)"/>
<path d="M279.979 155.104C280.174 154.908 280.174 154.592 279.979 154.396L276.797 151.214C276.601 151.019 276.285 151.019 276.089 151.214C275.894 151.41 275.894 151.726 276.089 151.922L278.918 154.75L276.089 157.578C275.894 157.774 275.894 158.09 276.089 158.286C276.285 158.481 276.601 158.481 276.797 158.286L279.979 155.104ZM176.345 192.611L197.027 172.845L196.336 172.122L175.655 191.889L176.345 192.611ZM240.901 155.25H279.625V154.25H240.901V155.25ZM197.027 172.845C208.842 161.552 224.557 155.25 240.901 155.25V154.25C224.3 154.25 208.337 160.651 196.336 172.122L197.027 172.845Z" fill="url(#paint33_linear_1307_14965)"/>
<path d="M280.091 312.068C280.191 312.325 280.065 312.615 279.807 312.716L275.618 314.358C275.361 314.459 275.071 314.332 274.97 314.075C274.869 313.818 274.996 313.528 275.253 313.427L278.977 311.967L277.517 308.243C277.416 307.986 277.543 307.696 277.8 307.595C278.057 307.494 278.347 307.621 278.448 307.878L280.091 312.068ZM176.443 208.893L205.234 263.929L204.348 264.393L175.557 209.357L176.443 208.893ZM236.083 292.685L279.825 311.792L279.425 312.708L235.682 293.602L236.083 292.685ZM205.234 263.929C211.941 276.749 222.824 286.894 236.083 292.685L235.682 293.602C222.215 287.719 211.16 277.414 204.348 264.393L205.234 263.929Z" fill="url(#paint34_linear_1307_14965)"/>
<path d="M279.979 233.146C280.174 233.342 280.174 233.658 279.979 233.854L276.797 237.036C276.601 237.231 276.285 237.231 276.089 237.036C275.894 236.84 275.894 236.524 276.089 236.328L278.918 233.5L276.089 230.672C275.894 230.476 275.894 230.16 276.089 229.964C276.285 229.769 276.601 229.769 276.797 229.964L279.979 233.146ZM176.345 195.639L197.027 215.405L196.336 216.128L175.655 196.361L176.345 195.639ZM240.901 233H279.625V234H240.901V233ZM197.027 215.405C208.842 226.698 224.557 233 240.901 233V234C224.3 234 208.337 227.599 196.336 216.128L197.027 215.405Z" fill="url(#paint35_linear_1307_14965)"/>
</g>
<g filter="url(#filter14_f_1307_14965)">
<path d="M280.091 76.1825C280.191 75.9254 280.065 75.6353 279.807 75.5345L275.618 73.8922C275.361 73.7914 275.071 73.9181 274.97 74.1752C274.869 74.4323 274.996 74.7225 275.253 74.8232L278.977 76.283L277.517 80.0071C277.416 80.2642 277.543 80.5544 277.8 80.6551C278.057 80.7559 278.347 80.6292 278.448 80.3721L280.091 76.1825ZM176.443 179.357L205.234 124.321L204.348 123.857L175.557 178.893L176.443 179.357ZM236.083 95.5646L279.825 76.4582L279.425 75.5418L235.682 94.6482L236.083 95.5646ZM205.234 124.321C211.941 111.501 222.824 101.356 236.083 95.5646L235.682 94.6482C222.215 100.531 211.16 110.836 204.348 123.857L205.234 124.321Z" fill="url(#paint36_linear_1307_14965)"/>
<path d="M279.979 155.104C280.174 154.908 280.174 154.592 279.979 154.396L276.797 151.214C276.601 151.019 276.285 151.019 276.089 151.214C275.894 151.41 275.894 151.726 276.089 151.922L278.918 154.75L276.089 157.578C275.894 157.774 275.894 158.09 276.089 158.286C276.285 158.481 276.601 158.481 276.797 158.286L279.979 155.104ZM176.345 192.611L197.027 172.845L196.336 172.122L175.655 191.889L176.345 192.611ZM240.901 155.25H279.625V154.25H240.901V155.25ZM197.027 172.845C208.842 161.552 224.557 155.25 240.901 155.25V154.25C224.3 154.25 208.337 160.651 196.336 172.122L197.027 172.845Z" fill="url(#paint37_linear_1307_14965)"/>
<path d="M280.091 312.068C280.191 312.325 280.065 312.615 279.807 312.716L275.618 314.358C275.361 314.459 275.071 314.332 274.97 314.075C274.869 313.818 274.996 313.528 275.253 313.427L278.977 311.967L277.517 308.243C277.416 307.986 277.543 307.696 277.8 307.595C278.057 307.494 278.347 307.621 278.448 307.878L280.091 312.068ZM176.443 208.893L205.234 263.929L204.348 264.393L175.557 209.357L176.443 208.893ZM236.083 292.685L279.825 311.792L279.425 312.708L235.682 293.602L236.083 292.685ZM205.234 263.929C211.941 276.749 222.824 286.894 236.083 292.685L235.682 293.602C222.215 287.719 211.16 277.414 204.348 264.393L205.234 263.929Z" fill="url(#paint38_linear_1307_14965)"/>
<path d="M279.979 233.146C280.174 233.342 280.174 233.658 279.979 233.854L276.797 237.036C276.601 237.231 276.285 237.231 276.089 237.036C275.894 236.84 275.894 236.524 276.089 236.328L278.918 233.5L276.089 230.672C275.894 230.476 275.894 230.16 276.089 229.964C276.285 229.769 276.601 229.769 276.797 229.964L279.979 233.146ZM176.345 195.639L197.027 215.405L196.336 216.128L175.655 196.361L176.345 195.639ZM240.901 233H279.625V234H240.901V233ZM197.027 215.405C208.842 226.698 224.557 233 240.901 233V234C224.3 234 208.337 227.599 196.336 216.128L197.027 215.405Z" fill="url(#paint39_linear_1307_14965)"/>
</g>
<g filter="url(#filter15_f_1307_14965)">
<path d="M280.091 76.1825C280.191 75.9254 280.065 75.6353 279.807 75.5345L275.618 73.8922C275.361 73.7914 275.071 73.9181 274.97 74.1752C274.869 74.4323 274.996 74.7225 275.253 74.8232L278.977 76.283L277.517 80.0071C277.416 80.2642 277.543 80.5544 277.8 80.6551C278.057 80.7559 278.347 80.6292 278.448 80.3721L280.091 76.1825ZM176.443 179.357L205.234 124.321L204.348 123.857L175.557 178.893L176.443 179.357ZM236.083 95.5646L279.825 76.4582L279.425 75.5418L235.682 94.6482L236.083 95.5646ZM205.234 124.321C211.941 111.501 222.824 101.356 236.083 95.5646L235.682 94.6482C222.215 100.531 211.16 110.836 204.348 123.857L205.234 124.321Z" fill="url(#paint40_linear_1307_14965)"/>
<path d="M279.979 155.104C280.174 154.908 280.174 154.592 279.979 154.396L276.797 151.214C276.601 151.019 276.285 151.019 276.089 151.214C275.894 151.41 275.894 151.726 276.089 151.922L278.918 154.75L276.089 157.578C275.894 157.774 275.894 158.09 276.089 158.286C276.285 158.481 276.601 158.481 276.797 158.286L279.979 155.104ZM176.345 192.611L197.027 172.845L196.336 172.122L175.655 191.889L176.345 192.611ZM240.901 155.25H279.625V154.25H240.901V155.25ZM197.027 172.845C208.842 161.552 224.557 155.25 240.901 155.25V154.25C224.3 154.25 208.337 160.651 196.336 172.122L197.027 172.845Z" fill="url(#paint41_linear_1307_14965)"/>
<path d="M280.091 312.068C280.191 312.325 280.065 312.615 279.807 312.716L275.618 314.358C275.361 314.459 275.071 314.332 274.97 314.075C274.869 313.818 274.996 313.528 275.253 313.427L278.977 311.967L277.517 308.243C277.416 307.986 277.543 307.696 277.8 307.595C278.057 307.494 278.347 307.621 278.448 307.878L280.091 312.068ZM176.443 208.893L205.234 263.929L204.348 264.393L175.557 209.357L176.443 208.893ZM236.083 292.685L279.825 311.792L279.425 312.708L235.682 293.602L236.083 292.685ZM205.234 263.929C211.941 276.749 222.824 286.894 236.083 292.685L235.682 293.602C222.215 287.719 211.16 277.414 204.348 264.393L205.234 263.929Z" fill="url(#paint42_linear_1307_14965)"/>
<path d="M279.979 233.146C280.174 233.342 280.174 233.658 279.979 233.854L276.797 237.036C276.601 237.231 276.285 237.231 276.089 237.036C275.894 236.84 275.894 236.524 276.089 236.328L278.918 233.5L276.089 230.672C275.894 230.476 275.894 230.16 276.089 229.964C276.285 229.769 276.601 229.769 276.797 229.964L279.979 233.146ZM176.345 195.639L197.027 215.405L196.336 216.128L175.655 196.361L176.345 195.639ZM240.901 233H279.625V234H240.901V233ZM197.027 215.405C208.842 226.698 224.557 233 240.901 233V234C224.3 234 208.337 227.599 196.336 216.128L197.027 215.405Z" fill="url(#paint43_linear_1307_14965)"/>
</g>
<g filter="url(#filter16_f_1307_14965)">
<path d="M280.091 76.1825C280.191 75.9254 280.065 75.6353 279.807 75.5345L275.618 73.8922C275.361 73.7914 275.071 73.9181 274.97 74.1752C274.869 74.4323 274.996 74.7225 275.253 74.8232L278.977 76.283L277.517 80.0071C277.416 80.2642 277.543 80.5544 277.8 80.6551C278.057 80.7559 278.347 80.6292 278.448 80.3721L280.091 76.1825ZM176.443 179.357L205.234 124.321L204.348 123.857L175.557 178.893L176.443 179.357ZM236.083 95.5646L279.825 76.4582L279.425 75.5418L235.682 94.6482L236.083 95.5646ZM205.234 124.321C211.941 111.501 222.824 101.356 236.083 95.5646L235.682 94.6482C222.215 100.531 211.16 110.836 204.348 123.857L205.234 124.321Z" fill="url(#paint44_linear_1307_14965)"/>
<path d="M279.979 155.104C280.174 154.908 280.174 154.592 279.979 154.396L276.797 151.214C276.601 151.019 276.285 151.019 276.089 151.214C275.894 151.41 275.894 151.726 276.089 151.922L278.918 154.75L276.089 157.578C275.894 157.774 275.894 158.09 276.089 158.286C276.285 158.481 276.601 158.481 276.797 158.286L279.979 155.104ZM176.345 192.611L197.027 172.845L196.336 172.122L175.655 191.889L176.345 192.611ZM240.901 155.25H279.625V154.25H240.901V155.25ZM197.027 172.845C208.842 161.552 224.557 155.25 240.901 155.25V154.25C224.3 154.25 208.337 160.651 196.336 172.122L197.027 172.845Z" fill="url(#paint45_linear_1307_14965)"/>
<path d="M280.091 312.068C280.191 312.325 280.065 312.615 279.807 312.716L275.618 314.358C275.361 314.459 275.071 314.332 274.97 314.075C274.869 313.818 274.996 313.528 275.253 313.427L278.977 311.967L277.517 308.243C277.416 307.986 277.543 307.696 277.8 307.595C278.057 307.494 278.347 307.621 278.448 307.878L280.091 312.068ZM176.443 208.893L205.234 263.929L204.348 264.393L175.557 209.357L176.443 208.893ZM236.083 292.685L279.825 311.792L279.425 312.708L235.682 293.602L236.083 292.685ZM205.234 263.929C211.941 276.749 222.824 286.894 236.083 292.685L235.682 293.602C222.215 287.719 211.16 277.414 204.348 264.393L205.234 263.929Z" fill="url(#paint46_linear_1307_14965)"/>
<path d="M279.979 233.146C280.174 233.342 280.174 233.658 279.979 233.854L276.797 237.036C276.601 237.231 276.285 237.231 276.089 237.036C275.894 236.84 275.894 236.524 276.089 236.328L278.918 233.5L276.089 230.672C275.894 230.476 275.894 230.16 276.089 229.964C276.285 229.769 276.601 229.769 276.797 229.964L279.979 233.146ZM176.345 195.639L197.027 215.405L196.336 216.128L175.655 196.361L176.345 195.639ZM240.901 233H279.625V234H240.901V233ZM197.027 215.405C208.842 226.698 224.557 233 240.901 233V234C224.3 234 208.337 227.599 196.336 216.128L197.027 215.405Z" fill="url(#paint47_linear_1307_14965)"/>
</g>
<path d="M280.091 76.1825C280.191 75.9254 280.065 75.6353 279.807 75.5345L275.618 73.8922C275.361 73.7914 275.071 73.9181 274.97 74.1752C274.869 74.4323 274.996 74.7225 275.253 74.8232L278.977 76.283L277.517 80.0071C277.416 80.2642 277.543 80.5544 277.8 80.6551C278.057 80.7559 278.347 80.6292 278.448 80.3721L280.091 76.1825ZM176.443 179.357L205.234 124.321L204.348 123.857L175.557 178.893L176.443 179.357ZM236.083 95.5646L279.825 76.4582L279.425 75.5418L235.682 94.6482L236.083 95.5646ZM205.234 124.321C211.941 111.501 222.824 101.356 236.083 95.5646L235.682 94.6482C222.215 100.531 211.16 110.836 204.348 123.857L205.234 124.321Z" fill="url(#paint48_linear_1307_14965)"/>
<path d="M279.979 155.104C280.174 154.908 280.174 154.592 279.979 154.396L276.797 151.214C276.601 151.019 276.285 151.019 276.089 151.214C275.894 151.41 275.894 151.726 276.089 151.922L278.918 154.75L276.089 157.578C275.894 157.774 275.894 158.09 276.089 158.286C276.285 158.481 276.601 158.481 276.797 158.286L279.979 155.104ZM176.345 192.611L197.027 172.845L196.336 172.122L175.655 191.889L176.345 192.611ZM240.901 155.25H279.625V154.25H240.901V155.25ZM197.027 172.845C208.842 161.552 224.557 155.25 240.901 155.25V154.25C224.3 154.25 208.337 160.651 196.336 172.122L197.027 172.845Z" fill="url(#paint49_linear_1307_14965)"/>
<path d="M280.091 312.068C280.191 312.325 280.065 312.615 279.807 312.716L275.618 314.358C275.361 314.459 275.071 314.332 274.97 314.075C274.869 313.818 274.996 313.528 275.253 313.427L278.977 311.967L277.517 308.243C277.416 307.986 277.543 307.696 277.8 307.595C278.057 307.494 278.347 307.621 278.448 307.878L280.091 312.068ZM176.443 208.893L205.234 263.929L204.348 264.393L175.557 209.357L176.443 208.893ZM236.083 292.685L279.825 311.792L279.425 312.708L235.682 293.602L236.083 292.685ZM205.234 263.929C211.941 276.749 222.824 286.894 236.083 292.685L235.682 293.602C222.215 287.719 211.16 277.414 204.348 264.393L205.234 263.929Z" fill="url(#paint50_linear_1307_14965)"/>
<path d="M279.979 233.146C280.174 233.342 280.174 233.658 279.979 233.854L276.797 237.036C276.601 237.231 276.285 237.231 276.089 237.036C275.894 236.84 275.894 236.524 276.089 236.328L278.918 233.5L276.089 230.672C275.894 230.476 275.894 230.16 276.089 229.964C276.285 229.769 276.601 229.769 276.797 229.964L279.979 233.146ZM176.345 195.639L197.027 215.405L196.336 216.128L175.655 196.361L176.345 195.639ZM240.901 233H279.625V234H240.901V233ZM197.027 215.405C208.842 226.698 224.557 233 240.901 233V234C224.3 234 208.337 227.599 196.336 216.128L197.027 215.405Z" fill="url(#paint51_linear_1307_14965)"/>
</g>
<defs>
<filter id="filter0_f_1307_14965" x="98" y="28" width="162" height="332" filterUnits="userSpaceOnUse" color-interpolation-filters="sRGB">
<feFlood flood-opacity="0" result="BackgroundImageFix"/>
<feBlend mode="normal" in="SourceGraphic" in2="BackgroundImageFix" result="shape"/>
<feGaussianBlur stdDeviation="8" result="effect1_foregroundBlur_1307_14965"/>
</filter>
<filter id="filter1_f_1307_14965" x="0" y="0" width="135.812" height="135.812" filterUnits="userSpaceOnUse" color-interpolation-filters="sRGB">
<feFlood flood-opacity="0" result="BackgroundImageFix"/>
<feBlend mode="normal" in="SourceGraphic" in2="BackgroundImageFix" result="shape"/>
<feGaussianBlur stdDeviation="22" result="effect1_foregroundBlur_1307_14965"/>
</filter>
<filter id="filter2_f_1307_14965" x="0" y="63.0469" width="135.812" height="135.812" filterUnits="userSpaceOnUse" color-interpolation-filters="sRGB">
<feFlood flood-opacity="0" result="BackgroundImageFix"/>
<feBlend mode="normal" in="SourceGraphic" in2="BackgroundImageFix" result="shape"/>
<feGaussianBlur stdDeviation="22" result="effect1_foregroundBlur_1307_14965"/>
</filter>
<filter id="filter3_f_1307_14965" x="0" y="126.094" width="135.812" height="135.812" filterUnits="userSpaceOnUse" color-interpolation-filters="sRGB">
<feFlood flood-opacity="0" result="BackgroundImageFix"/>
<feBlend mode="normal" in="SourceGraphic" in2="BackgroundImageFix" result="shape"/>
<feGaussianBlur stdDeviation="22" result="effect1_foregroundBlur_1307_14965"/>
</filter>
<filter id="filter4_f_1307_14965" x="0" y="189.141" width="135.812" height="135.812" filterUnits="userSpaceOnUse" color-interpolation-filters="sRGB">
<feFlood flood-opacity="0" result="BackgroundImageFix"/>
<feBlend mode="normal" in="SourceGraphic" in2="BackgroundImageFix" result="shape"/>
<feGaussianBlur stdDeviation="22" result="effect1_foregroundBlur_1307_14965"/>
</filter>
<filter id="filter5_f_1307_14965" x="0" y="252.188" width="135.812" height="135.812" filterUnits="userSpaceOnUse" color-interpolation-filters="sRGB">
<feFlood flood-opacity="0" result="BackgroundImageFix"/>
<feBlend mode="normal" in="SourceGraphic" in2="BackgroundImageFix" result="shape"/>
<feGaussianBlur stdDeviation="22" result="effect1_foregroundBlur_1307_14965"/>
</filter>
<filter id="filter6_f_1307_14965" x="278.75" y="28" width="373.25" height="95.75" filterUnits="userSpaceOnUse" color-interpolation-filters="sRGB">
<feFlood flood-opacity="0" result="BackgroundImageFix"/>
<feBlend mode="normal" in="SourceGraphic" in2="BackgroundImageFix" result="shape"/>
<feGaussianBlur stdDeviation="8" result="effect1_foregroundBlur_1307_14965"/>
</filter>
<filter id="filter7_f_1307_14965" x="278.75" y="106.75" width="373.25" height="95.75" filterUnits="userSpaceOnUse" color-interpolation-filters="sRGB">
<feFlood flood-opacity="0" result="BackgroundImageFix"/>
<feBlend mode="normal" in="SourceGraphic" in2="BackgroundImageFix" result="shape"/>
<feGaussianBlur stdDeviation="8" result="effect1_foregroundBlur_1307_14965"/>
</filter>
<filter id="filter8_f_1307_14965" x="278.75" y="185.5" width="373.25" height="95.75" filterUnits="userSpaceOnUse" color-interpolation-filters="sRGB">
<feFlood flood-opacity="0" result="BackgroundImageFix"/>
<feBlend mode="normal" in="SourceGraphic" in2="BackgroundImageFix" result="shape"/>
<feGaussianBlur stdDeviation="8" result="effect1_foregroundBlur_1307_14965"/>
</filter>
<filter id="filter9_f_1307_14965" x="278.75" y="264.25" width="373.25" height="95.75" filterUnits="userSpaceOnUse" color-interpolation-filters="sRGB">
<feFlood flood-opacity="0" result="BackgroundImageFix"/>
<feBlend mode="normal" in="SourceGraphic" in2="BackgroundImageFix" result="shape"/>
<feGaussianBlur stdDeviation="8" result="effect1_foregroundBlur_1307_14965"/>
</filter>
<filter id="filter10_f_1307_14965" x="167.557" y="65.8574" width="120.568" height="256.535" filterUnits="userSpaceOnUse" color-interpolation-filters="sRGB">
<feFlood flood-opacity="0" result="BackgroundImageFix"/>
<feBlend mode="normal" in="SourceGraphic" in2="BackgroundImageFix" result="shape"/>
<feGaussianBlur stdDeviation="4" result="effect1_foregroundBlur_1307_14965"/>
</filter>
<filter id="filter11_f_1307_14965" x="167.557" y="65.8574" width="120.568" height="256.535" filterUnits="userSpaceOnUse" color-interpolation-filters="sRGB">
<feFlood flood-opacity="0" result="BackgroundImageFix"/>
<feBlend mode="normal" in="SourceGraphic" in2="BackgroundImageFix" result="shape"/>
<feGaussianBlur stdDeviation="4" result="effect1_foregroundBlur_1307_14965"/>
</filter>
<filter id="filter12_f_1307_14965" x="167.557" y="65.8574" width="120.568" height="256.535" filterUnits="userSpaceOnUse" color-interpolation-filters="sRGB">
<feFlood flood-opacity="0" result="BackgroundImageFix"/>
<feBlend mode="normal" in="SourceGraphic" in2="BackgroundImageFix" result="shape"/>
<feGaussianBlur stdDeviation="4" result="effect1_foregroundBlur_1307_14965"/>
</filter>
<filter id="filter13_f_1307_14965" x="159.557" y="57.8574" width="136.568" height="272.535" filterUnits="userSpaceOnUse" color-interpolation-filters="sRGB">
<feFlood flood-opacity="0" result="BackgroundImageFix"/>
<feBlend mode="normal" in="SourceGraphic" in2="BackgroundImageFix" result="shape"/>
<feGaussianBlur stdDeviation="8" result="effect1_foregroundBlur_1307_14965"/>
</filter>
<filter id="filter14_f_1307_14965" x="159.557" y="57.8574" width="136.568" height="272.535" filterUnits="userSpaceOnUse" color-interpolation-filters="sRGB">
<feFlood flood-opacity="0" result="BackgroundImageFix"/>
<feBlend mode="normal" in="SourceGraphic" in2="BackgroundImageFix" result="shape"/>
<feGaussianBlur stdDeviation="8" result="effect1_foregroundBlur_1307_14965"/>
</filter>
<filter id="filter15_f_1307_14965" x="159.557" y="57.8574" width="136.568" height="272.535" filterUnits="userSpaceOnUse" color-interpolation-filters="sRGB">
<feFlood flood-opacity="0" result="BackgroundImageFix"/>
<feBlend mode="normal" in="SourceGraphic" in2="BackgroundImageFix" result="shape"/>
<feGaussianBlur stdDeviation="8" result="effect1_foregroundBlur_1307_14965"/>
</filter>
<filter id="filter16_f_1307_14965" x="159.557" y="57.8574" width="136.568" height="272.535" filterUnits="userSpaceOnUse" color-interpolation-filters="sRGB">
<feFlood flood-opacity="0" result="BackgroundImageFix"/>
<feBlend mode="normal" in="SourceGraphic" in2="BackgroundImageFix" result="shape"/>
<feGaussianBlur stdDeviation="8" result="effect1_foregroundBlur_1307_14965"/>
</filter>
<linearGradient id="paint0_linear_1307_14965" x1="130" y1="150" x2="-50.375" y2="150" gradientUnits="userSpaceOnUse">
<stop stop-color="#FF9416" stop-opacity="0.75"/>
<stop offset="0.4" stop-color="#FA00FF" stop-opacity="0.15"/>
<stop offset="1" stop-color="#FA00FF" stop-opacity="0"/>
</linearGradient>
<linearGradient id="paint1_linear_1307_14965" x1="91.787" y1="43.9286" x2="43.9516" y2="91.7641" gradientUnits="userSpaceOnUse">
<stop stop-color="#23FFF2"/>
<stop offset="1" stop-color="#4642FF" stop-opacity="0.5"/>
</linearGradient>
<linearGradient id="paint2_linear_1307_14965" x1="91.787" y1="43.9286" x2="43.9516" y2="91.7641" gradientUnits="userSpaceOnUse">
<stop stop-color="#23FFF2"/>
<stop offset="1" stop-color="#4642FF" stop-opacity="0.5"/>
</linearGradient>
<linearGradient id="paint3_linear_1307_14965" x1="91.787" y1="106.975" x2="43.9516" y2="154.811" gradientUnits="userSpaceOnUse">
<stop stop-color="#23FFF2"/>
<stop offset="1" stop-color="#4642FF" stop-opacity="0.5"/>
</linearGradient>
<linearGradient id="paint4_linear_1307_14965" x1="91.787" y1="106.975" x2="43.9516" y2="154.811" gradientUnits="userSpaceOnUse">
<stop stop-color="#23FFF2"/>
<stop offset="1" stop-color="#4642FF" stop-opacity="0.5"/>
</linearGradient>
<linearGradient id="paint5_linear_1307_14965" x1="91.787" y1="170.022" x2="43.9516" y2="217.858" gradientUnits="userSpaceOnUse">
<stop stop-color="#23FFF2"/>
<stop offset="1" stop-color="#4642FF" stop-opacity="0.5"/>
</linearGradient>
<linearGradient id="paint6_linear_1307_14965" x1="91.787" y1="170.022" x2="43.9516" y2="217.858" gradientUnits="userSpaceOnUse">
<stop stop-color="#23FFF2"/>
<stop offset="1" stop-color="#4642FF" stop-opacity="0.5"/>
</linearGradient>
<linearGradient id="paint7_linear_1307_14965" x1="91.787" y1="233.069" x2="43.9516" y2="280.905" gradientUnits="userSpaceOnUse">
<stop stop-color="#23FFF2"/>
<stop offset="1" stop-color="#4642FF" stop-opacity="0.5"/>
</linearGradient>
<linearGradient id="paint8_linear_1307_14965" x1="91.787" y1="233.069" x2="43.9516" y2="280.905" gradientUnits="userSpaceOnUse">
<stop stop-color="#23FFF2"/>
<stop offset="1" stop-color="#4642FF" stop-opacity="0.5"/>
</linearGradient>
<linearGradient id="paint9_linear_1307_14965" x1="91.787" y1="296.116" x2="43.9516" y2="343.952" gradientUnits="userSpaceOnUse">
<stop stop-color="#23FFF2"/>
<stop offset="1" stop-color="#4642FF" stop-opacity="0.5"/>
</linearGradient>
<linearGradient id="paint10_linear_1307_14965" x1="91.787" y1="296.116" x2="43.9516" y2="343.952" gradientUnits="userSpaceOnUse">
<stop stop-color="#23FFF2"/>
<stop offset="1" stop-color="#4642FF" stop-opacity="0.5"/>
</linearGradient>
<linearGradient id="paint11_linear_1307_14965" x1="636" y1="75.875" x2="66.5" y2="75.8723" gradientUnits="userSpaceOnUse">
<stop stop-color="#FF9416" stop-opacity="0.75"/>
<stop offset="0.4" stop-color="#FA00FF" stop-opacity="0.15"/>
<stop offset="1" stop-color="#FA00FF" stop-opacity="0"/>
</linearGradient>
<linearGradient id="paint12_linear_1307_14965" x1="636" y1="75.875" x2="294.75" y2="75.875" gradientUnits="userSpaceOnUse">
<stop stop-color="#FF9416" stop-opacity="0"/>
<stop offset="0.21" stop-color="#FF9416" stop-opacity="0.1"/>
<stop offset="1" stop-color="#ED30B8"/>
</linearGradient>
<linearGradient id="paint13_linear_1307_14965" x1="341.25" y1="31.875" x2="-228.25" y2="31.8723" gradientUnits="userSpaceOnUse">
<stop stop-color="#FF9416" stop-opacity="0.75"/>
<stop offset="0.4" stop-color="#FA00FF" stop-opacity="0.15"/>
<stop offset="1" stop-color="#FA00FF" stop-opacity="0"/>
</linearGradient>
<linearGradient id="paint14_linear_1307_14965" x1="341.25" y1="31.875" x2="0" y2="31.875" gradientUnits="userSpaceOnUse">
<stop stop-color="#FF9416" stop-opacity="0"/>
<stop offset="0.21" stop-color="#FF9416" stop-opacity="0.1"/>
<stop offset="1" stop-color="#ED30B8"/>
</linearGradient>
<linearGradient id="paint15_linear_1307_14965" x1="636" y1="233.375" x2="66.5" y2="233.372" gradientUnits="userSpaceOnUse">
<stop stop-color="#FF9416" stop-opacity="0.75"/>
<stop offset="0.4" stop-color="#FA00FF" stop-opacity="0.15"/>
<stop offset="1" stop-color="#FA00FF" stop-opacity="0"/>
</linearGradient>
<linearGradient id="paint16_linear_1307_14965" x1="636" y1="233.375" x2="294.75" y2="233.375" gradientUnits="userSpaceOnUse">
<stop stop-color="#FF9416" stop-opacity="0"/>
<stop offset="0.21" stop-color="#FF9416" stop-opacity="0.1"/>
<stop offset="1" stop-color="#ED30B8"/>
</linearGradient>
<linearGradient id="paint17_linear_1307_14965" x1="341.25" y1="31.875" x2="-228.25" y2="31.8723" gradientUnits="userSpaceOnUse">
<stop stop-color="#FF9416" stop-opacity="0.75"/>
<stop offset="0.4" stop-color="#FA00FF" stop-opacity="0.15"/>
<stop offset="1" stop-color="#FA00FF" stop-opacity="0"/>
</linearGradient>
<linearGradient id="paint18_linear_1307_14965" x1="341.25" y1="31.875" x2="0" y2="31.875" gradientUnits="userSpaceOnUse">
<stop stop-color="#FF9416" stop-opacity="0"/>
<stop offset="0.21" stop-color="#FF9416" stop-opacity="0.1"/>
<stop offset="1" stop-color="#ED30B8"/>
</linearGradient>
<linearGradient id="paint19_linear_1307_14965" x1="295" y1="194" x2="170" y2="194" gradientUnits="userSpaceOnUse">
<stop stop-color="#D9D9D9"/>
<stop offset="1" stop-color="#D9D9D9" stop-opacity="0"/>
</linearGradient>
<linearGradient id="paint20_linear_1307_14965" x1="176" y1="127.739" x2="279.624" y2="128.025" gradientUnits="userSpaceOnUse">
<stop stop-color="#ED30B8"/>
<stop offset="1" stop-color="#FF8F3F"/>
</linearGradient>
<linearGradient id="paint21_linear_1307_14965" x1="176" y1="173.564" x2="279.619" y2="174.35" gradientUnits="userSpaceOnUse">
<stop stop-color="#ED30B8"/>
<stop offset="1" stop-color="#FF8F3F"/>
</linearGradient>
<linearGradient id="paint22_linear_1307_14965" x1="176" y1="260.511" x2="279.624" y2="260.225" gradientUnits="userSpaceOnUse">
<stop stop-color="#ED30B8"/>
<stop offset="1" stop-color="#FF8F3F"/>
</linearGradient>
<linearGradient id="paint23_linear_1307_14965" x1="176" y1="214.686" x2="279.619" y2="213.9" gradientUnits="userSpaceOnUse">
<stop stop-color="#ED30B8"/>
<stop offset="1" stop-color="#FF8F3F"/>
</linearGradient>
<linearGradient id="paint24_linear_1307_14965" x1="176" y1="127.739" x2="279.624" y2="128.025" gradientUnits="userSpaceOnUse">
<stop stop-color="#ED30B8"/>
<stop offset="1" stop-color="#FF8F3F"/>
</linearGradient>
<linearGradient id="paint25_linear_1307_14965" x1="176" y1="173.564" x2="279.619" y2="174.35" gradientUnits="userSpaceOnUse">
<stop stop-color="#ED30B8"/>
<stop offset="1" stop-color="#FF8F3F"/>
</linearGradient>
<linearGradient id="paint26_linear_1307_14965" x1="176" y1="260.511" x2="279.624" y2="260.225" gradientUnits="userSpaceOnUse">
<stop stop-color="#ED30B8"/>
<stop offset="1" stop-color="#FF8F3F"/>
</linearGradient>
<linearGradient id="paint27_linear_1307_14965" x1="176" y1="214.686" x2="279.619" y2="213.9" gradientUnits="userSpaceOnUse">
<stop stop-color="#ED30B8"/>
<stop offset="1" stop-color="#FF8F3F"/>
</linearGradient>
<linearGradient id="paint28_linear_1307_14965" x1="176" y1="127.739" x2="279.624" y2="128.025" gradientUnits="userSpaceOnUse">
<stop stop-color="#ED30B8"/>
<stop offset="1" stop-color="#FF8F3F"/>
</linearGradient>
<linearGradient id="paint29_linear_1307_14965" x1="176" y1="173.564" x2="279.619" y2="174.35" gradientUnits="userSpaceOnUse">
<stop stop-color="#ED30B8"/>
<stop offset="1" stop-color="#FF8F3F"/>
</linearGradient>
<linearGradient id="paint30_linear_1307_14965" x1="176" y1="260.511" x2="279.624" y2="260.225" gradientUnits="userSpaceOnUse">
<stop stop-color="#ED30B8"/>
<stop offset="1" stop-color="#FF8F3F"/>
</linearGradient>
<linearGradient id="paint31_linear_1307_14965" x1="176" y1="214.686" x2="279.619" y2="213.9" gradientUnits="userSpaceOnUse">
<stop stop-color="#ED30B8"/>
<stop offset="1" stop-color="#FF8F3F"/>
</linearGradient>
<linearGradient id="paint32_linear_1307_14965" x1="176" y1="127.739" x2="279.624" y2="128.025" gradientUnits="userSpaceOnUse">
<stop stop-color="#ED30B8"/>
<stop offset="1" stop-color="#FF8F3F"/>
</linearGradient>
<linearGradient id="paint33_linear_1307_14965" x1="176" y1="173.564" x2="279.619" y2="174.35" gradientUnits="userSpaceOnUse">
<stop stop-color="#ED30B8"/>
<stop offset="1" stop-color="#FF8F3F"/>
</linearGradient>
<linearGradient id="paint34_linear_1307_14965" x1="176" y1="260.511" x2="279.624" y2="260.225" gradientUnits="userSpaceOnUse">
<stop stop-color="#ED30B8"/>
<stop offset="1" stop-color="#FF8F3F"/>
</linearGradient>
<linearGradient id="paint35_linear_1307_14965" x1="176" y1="214.686" x2="279.619" y2="213.9" gradientUnits="userSpaceOnUse">
<stop stop-color="#ED30B8"/>
<stop offset="1" stop-color="#FF8F3F"/>
</linearGradient>
<linearGradient id="paint36_linear_1307_14965" x1="176" y1="127.739" x2="279.624" y2="128.025" gradientUnits="userSpaceOnUse">
<stop stop-color="#ED30B8"/>
<stop offset="1" stop-color="#FF8F3F"/>
</linearGradient>
<linearGradient id="paint37_linear_1307_14965" x1="176" y1="173.564" x2="279.619" y2="174.35" gradientUnits="userSpaceOnUse">
<stop stop-color="#ED30B8"/>
<stop offset="1" stop-color="#FF8F3F"/>
</linearGradient>
<linearGradient id="paint38_linear_1307_14965" x1="176" y1="260.511" x2="279.624" y2="260.225" gradientUnits="userSpaceOnUse">
<stop stop-color="#ED30B8"/>
<stop offset="1" stop-color="#FF8F3F"/>
</linearGradient>
<linearGradient id="paint39_linear_1307_14965" x1="176" y1="214.686" x2="279.619" y2="213.9" gradientUnits="userSpaceOnUse">
<stop stop-color="#ED30B8"/>
<stop offset="1" stop-color="#FF8F3F"/>
</linearGradient>
<linearGradient id="paint40_linear_1307_14965" x1="176" y1="127.739" x2="279.624" y2="128.025" gradientUnits="userSpaceOnUse">
<stop stop-color="#ED30B8"/>
<stop offset="1" stop-color="#FF8F3F"/>
</linearGradient>
<linearGradient id="paint41_linear_1307_14965" x1="176" y1="173.564" x2="279.619" y2="174.35" gradientUnits="userSpaceOnUse">
<stop stop-color="#ED30B8"/>
<stop offset="1" stop-color="#FF8F3F"/>
</linearGradient>
<linearGradient id="paint42_linear_1307_14965" x1="176" y1="260.511" x2="279.624" y2="260.225" gradientUnits="userSpaceOnUse">
<stop stop-color="#ED30B8"/>
<stop offset="1" stop-color="#FF8F3F"/>
</linearGradient>
<linearGradient id="paint43_linear_1307_14965" x1="176" y1="214.686" x2="279.619" y2="213.9" gradientUnits="userSpaceOnUse">
<stop stop-color="#ED30B8"/>
<stop offset="1" stop-color="#FF8F3F"/>
</linearGradient>
<linearGradient id="paint44_linear_1307_14965" x1="176" y1="127.739" x2="279.624" y2="128.025" gradientUnits="userSpaceOnUse">
<stop stop-color="#ED30B8"/>
<stop offset="1" stop-color="#FF8F3F"/>
</linearGradient>
<linearGradient id="paint45_linear_1307_14965" x1="176" y1="173.564" x2="279.619" y2="174.35" gradientUnits="userSpaceOnUse">
<stop stop-color="#ED30B8"/>
<stop offset="1" stop-color="#FF8F3F"/>
</linearGradient>
<linearGradient id="paint46_linear_1307_14965" x1="176" y1="260.511" x2="279.624" y2="260.225" gradientUnits="userSpaceOnUse">
<stop stop-color="#ED30B8"/>
<stop offset="1" stop-color="#FF8F3F"/>
</linearGradient>
<linearGradient id="paint47_linear_1307_14965" x1="176" y1="214.686" x2="279.619" y2="213.9" gradientUnits="userSpaceOnUse">
<stop stop-color="#ED30B8"/>
<stop offset="1" stop-color="#FF8F3F"/>
</linearGradient>
<linearGradient id="paint48_linear_1307_14965" x1="176" y1="127.739" x2="279.624" y2="128.025" gradientUnits="userSpaceOnUse">
<stop stop-color="#ED30B8"/>
<stop offset="1" stop-color="#FF8F3F"/>
</linearGradient>
<linearGradient id="paint49_linear_1307_14965" x1="176" y1="173.564" x2="279.619" y2="174.35" gradientUnits="userSpaceOnUse">
<stop stop-color="#ED30B8"/>
<stop offset="1" stop-color="#FF8F3F"/>
</linearGradient>
<linearGradient id="paint50_linear_1307_14965" x1="176" y1="260.511" x2="279.624" y2="260.225" gradientUnits="userSpaceOnUse">
<stop stop-color="#ED30B8"/>
<stop offset="1" stop-color="#FF8F3F"/>
</linearGradient>
<linearGradient id="paint51_linear_1307_14965" x1="176" y1="214.686" x2="279.619" y2="213.9" gradientUnits="userSpaceOnUse">
<stop stop-color="#ED30B8"/>
<stop offset="1" stop-color="#FF8F3F"/>
</linearGradient>
</defs>
</svg>
