<svg width="561" height="404" viewBox="0 0 561 404" fill="none" xmlns="http://www.w3.org/2000/svg">
<g filter="url(#filter0_f_1129_10564)">
<rect width="222.882" height="222.882" transform="matrix(-0.70732 -0.706894 0.70732 -0.706894 201.648 359.63)" fill="url(#paint0_linear_1129_10564)" fill-opacity="0.5"/>
</g>
<g filter="url(#filter1_f_1129_10564)">
<rect width="222.882" height="222.882" transform="matrix(-0.70732 -0.706894 0.70732 -0.706894 359.297 359.63)" fill="url(#paint1_linear_1129_10564)" fill-opacity="0.5"/>
</g>
<path d="M241.97 359.63V44.5222M241.97 359.63L320.794 280.853M241.97 359.63L163.145 280.853M84.321 202.076H399.618M84.321 202.076L163.145 123.299M84.321 202.076L163.145 280.853M241.97 44.5222L163.145 123.299M241.97 44.5222L320.794 123.299M399.618 202.076L320.794 280.853M399.618 202.076L320.794 123.299M163.145 123.299L320.794 280.853M163.145 123.299V280.853M163.145 123.299H320.794M320.794 280.853H163.145M320.794 280.853V123.299M320.794 123.299L163.145 280.853" stroke="url(#paint2_linear_1129_10564)" stroke-width="0.5"/>
<ellipse cx="241.968" cy="44.3704" rx="2.3718" ry="2.37037" fill="#2877BA"/>
<ellipse cx="84.6394" cy="202" rx="2.3718" ry="2.37037" fill="#24FCF1"/>
<ellipse cx="241.968" cy="359.63" rx="2.3718" ry="2.37037" fill="#2876BA"/>
<ellipse cx="162.909" cy="280.617" rx="2.3718" ry="2.37037" fill="#29BDE2"/>
<ellipse cx="320.633" cy="123.383" rx="2.3718" ry="2.37037" fill="#2E63C2"/>
<ellipse cx="162.909" cy="123.383" rx="2.3718" ry="2.37037" fill="#29BDE2"/>
<ellipse cx="320.424" cy="280.617" rx="2.3718" ry="2.37037" fill="#2D64C3"/>
<ellipse cx="399.298" cy="202" rx="2.3718" ry="2.37037" fill="#2C82CF"/>
<path d="M399.298 359.63V44.5222M399.298 359.63L478.122 280.853M399.298 359.63L320.473 280.853M241.649 202.076H556.947M241.649 202.076L320.473 123.299M241.649 202.076L320.473 280.853M399.298 44.5222L320.473 123.299M399.298 44.5222L478.122 123.299M556.947 202.076L478.122 280.853M556.947 202.076L478.122 123.299M320.473 123.299L478.122 280.853M320.473 123.299V280.853M320.473 123.299H478.122M478.122 280.853H320.473M478.122 280.853V123.299M478.122 123.299L320.473 280.853" stroke="url(#paint3_linear_1129_10564)" stroke-width="0.5"/>
<ellipse cx="399.298" cy="44.3704" rx="2.3718" ry="2.37037" fill="#2877BA"/>
<ellipse cx="556.628" cy="202" rx="2.3718" ry="2.37037" fill="#24FCF1"/>
<ellipse cx="241.968" cy="202" rx="2.3718" ry="2.37037" fill="#2E98E1"/>
<ellipse cx="399.298" cy="359.63" rx="2.3718" ry="2.37037" fill="#2876BA"/>
<ellipse cx="478.358" cy="123.383" rx="2.3718" ry="2.37037" fill="#27B9D8"/>
<ellipse cx="478.358" cy="280.617" rx="2.3718" ry="2.37037" fill="#27B9D8"/>
<g filter="url(#filter2_b_1129_10564)">
<rect width="112.075" height="112.162" transform="matrix(-0.70732 -0.706894 0.707319 -0.706894 320.584 281.354)" fill="#D9D9D9" fill-opacity="0.15"/>
<rect x="-5.96046e-08" y="-0.706894" width="111.075" height="111.162" transform="matrix(-0.70732 -0.706894 0.707319 -0.706894 321.084 280.148)" stroke="white"/>
</g>
<defs>
<filter id="filter0_f_1129_10564" x="0" y="0.522461" width="403.297" height="403.107" filterUnits="userSpaceOnUse" color-interpolation-filters="sRGB">
<feFlood flood-opacity="0" result="BackgroundImageFix"/>
<feBlend mode="normal" in="SourceGraphic" in2="BackgroundImageFix" result="shape"/>
<feGaussianBlur stdDeviation="22" result="effect1_foregroundBlur_1129_10564"/>
</filter>
<filter id="filter1_f_1129_10564" x="157.648" y="0.522461" width="403.297" height="403.107" filterUnits="userSpaceOnUse" color-interpolation-filters="sRGB">
<feFlood flood-opacity="0" result="BackgroundImageFix"/>
<feBlend mode="normal" in="SourceGraphic" in2="BackgroundImageFix" result="shape"/>
<feGaussianBlur stdDeviation="22" result="effect1_foregroundBlur_1129_10564"/>
</filter>
<filter id="filter2_b_1129_10564" x="233.312" y="114.843" width="174.607" height="174.512" filterUnits="userSpaceOnUse" color-interpolation-filters="sRGB">
<feFlood flood-opacity="0" result="BackgroundImageFix"/>
<feGaussianBlur in="BackgroundImageFix" stdDeviation="4"/>
<feComposite in2="SourceAlpha" operator="in" result="effect1_backgroundBlur_1129_10564"/>
<feBlend mode="normal" in="SourceGraphic" in2="effect1_backgroundBlur_1129_10564" result="shape"/>
</filter>
<linearGradient id="paint0_linear_1129_10564" x1="222.763" y1="-0.333024" x2="-0.225844" y2="222.656" gradientUnits="userSpaceOnUse">
<stop stop-color="#23FFF2"/>
<stop offset="1" stop-color="#4642FF" stop-opacity="0.5"/>
</linearGradient>
<linearGradient id="paint1_linear_1129_10564" x1="222.763" y1="-0.333024" x2="-0.225844" y2="222.656" gradientUnits="userSpaceOnUse">
<stop stop-color="#23FFF2"/>
<stop offset="1" stop-color="#4642FF" stop-opacity="0.5"/>
</linearGradient>
<linearGradient id="paint2_linear_1129_10564" x1="84.1694" y1="202.395" x2="399.618" y2="202.395" gradientUnits="userSpaceOnUse">
<stop stop-color="#23FFF2"/>
<stop offset="1" stop-color="#4642FF" stop-opacity="0.5"/>
</linearGradient>
<linearGradient id="paint3_linear_1129_10564" x1="241.498" y1="202.395" x2="556.947" y2="202.395" gradientUnits="userSpaceOnUse">
<stop stop-color="#23FFF2"/>
<stop offset="1" stop-color="#4642FF" stop-opacity="0.5"/>
</linearGradient>
</defs>
</svg>
