<svg width="650" height="362" viewBox="0 0 650 362" fill="none" xmlns="http://www.w3.org/2000/svg">
<g filter="url(#filter0_f_1161_44457)">
<rect x="65.623" y="44" width="87.5928" height="61.2766" fill="url(#paint0_linear_1161_44457)"/>
</g>
<rect x="65.623" y="44" width="87.5928" height="61.2766" stroke="url(#paint1_linear_1161_44457)"/>
<g filter="url(#filter1_f_1161_44457)">
<rect x="173.627" y="44" width="87.5928" height="61.2766" fill="url(#paint2_linear_1161_44457)"/>
</g>
<rect x="173.627" y="44" width="87.5928" height="61.2766" stroke="url(#paint3_linear_1161_44457)"/>
<g filter="url(#filter2_f_1161_44457)">
<rect x="281.631" y="44" width="87.5928" height="61.2766" fill="url(#paint4_linear_1161_44457)"/>
</g>
<rect x="281.631" y="44" width="87.5928" height="61.2766" stroke="url(#paint5_linear_1161_44457)"/>
<g filter="url(#filter3_f_1161_44457)">
<rect x="389.631" y="44" width="87.5928" height="61.2766" fill="url(#paint6_linear_1161_44457)"/>
</g>
<rect x="389.631" y="44" width="87.5928" height="61.2766" stroke="url(#paint7_linear_1161_44457)"/>
<g filter="url(#filter4_f_1161_44457)">
<rect x="497.635" y="44" width="87.5928" height="61.2766" fill="url(#paint8_linear_1161_44457)"/>
</g>
<rect x="497.635" y="44" width="87.5928" height="61.2766" stroke="url(#paint9_linear_1161_44457)"/>
<mask id="mask0_1161_44457" style="mask-type:alpha" maskUnits="userSpaceOnUse" x="23" y="76" width="604" height="196">
<path d="M627 76.6582L627 272L23.0002 272L23.0002 76.6582L627 76.6582Z" fill="url(#paint10_linear_1161_44457)"/>
</mask>
<g mask="url(#mask0_1161_44457)">
<path d="M325 -26.541L325 291.903M721.531 -26.541L576.608 55.5511C486.143 106.795 440.446 159.288 440.446 211.961L440.445 291.903M-71.5321 -26.5411L73.3909 55.5511C163.856 106.795 209.554 159.288 209.554 211.961L209.554 291.903M510.717 -26.541C510.717 -26.541 425.771 70.3219 400.29 132.681C374.918 194.775 380.213 291.903 380.213 291.903M139.282 -26.541C139.282 -26.541 224.228 70.3218 249.709 132.681C275.081 194.775 269.786 291.903 269.786 291.903" stroke="url(#paint11_linear_1161_44457)" stroke-miterlimit="10" stroke-linejoin="round"/>
</g>
<g filter="url(#filter5_f_1161_44457)">
<mask id="mask1_1161_44457" style="mask-type:alpha" maskUnits="userSpaceOnUse" x="23" y="76" width="604" height="196">
<path d="M627 76.6582L627 272L23.0002 272L23.0002 76.6582L627 76.6582Z" fill="url(#paint12_linear_1161_44457)"/>
</mask>
<g mask="url(#mask1_1161_44457)">
<path d="M325 -26.541L325 291.903M721.531 -26.541L576.608 55.5511C486.143 106.795 440.446 159.288 440.446 211.961L440.445 291.903M-71.5321 -26.5411L73.3909 55.5511C163.856 106.795 209.554 159.288 209.554 211.961L209.554 291.903M510.717 -26.541C510.717 -26.541 425.771 70.3219 400.29 132.681C374.918 194.775 380.213 291.903 380.213 291.903M139.282 -26.541C139.282 -26.541 224.228 70.3218 249.709 132.681C275.081 194.775 269.786 291.903 269.786 291.903" stroke="url(#paint13_linear_1161_44457)" stroke-miterlimit="10" stroke-linejoin="round"/>
</g>
</g>
<g filter="url(#filter6_f_1161_44457)">
<mask id="mask2_1161_44457" style="mask-type:alpha" maskUnits="userSpaceOnUse" x="23" y="76" width="604" height="196">
<path d="M627 76.6582L627 272L23.0002 272L23.0002 76.6582L627 76.6582Z" fill="url(#paint14_linear_1161_44457)"/>
</mask>
<g mask="url(#mask2_1161_44457)">
<path d="M325 -26.541L325 291.903M721.531 -26.541L576.608 55.5511C486.143 106.795 440.446 159.288 440.446 211.961L440.445 291.903M-71.5321 -26.5411L73.3909 55.5511C163.856 106.795 209.554 159.288 209.554 211.961L209.554 291.903M510.717 -26.541C510.717 -26.541 425.771 70.3219 400.29 132.681C374.918 194.775 380.213 291.903 380.213 291.903M139.282 -26.541C139.282 -26.541 224.228 70.3218 249.709 132.681C275.081 194.775 269.786 291.903 269.786 291.903" stroke="url(#paint15_linear_1161_44457)" stroke-miterlimit="10" stroke-linejoin="round"/>
</g>
</g>
<g filter="url(#filter7_f_1161_44457)">
<mask id="mask3_1161_44457" style="mask-type:alpha" maskUnits="userSpaceOnUse" x="23" y="76" width="604" height="196">
<path d="M627 76.6582L627 272L23.0002 272L23.0002 76.6582L627 76.6582Z" fill="url(#paint16_linear_1161_44457)"/>
</mask>
<g mask="url(#mask3_1161_44457)">
<path d="M325 -26.541L325 291.903M721.531 -26.541L576.608 55.5511C486.143 106.795 440.446 159.288 440.446 211.961L440.445 291.903M-71.5321 -26.5411L73.3909 55.5511C163.856 106.795 209.554 159.288 209.554 211.961L209.554 291.903M510.717 -26.541C510.717 -26.541 425.771 70.3219 400.29 132.681C374.918 194.775 380.213 291.903 380.213 291.903M139.282 -26.541C139.282 -26.541 224.228 70.3218 249.709 132.681C275.081 194.775 269.786 291.903 269.786 291.903" stroke="url(#paint17_linear_1161_44457)" stroke-miterlimit="10" stroke-linejoin="round"/>
</g>
</g>
<g filter="url(#filter8_f_1161_44457)">
<mask id="mask4_1161_44457" style="mask-type:alpha" maskUnits="userSpaceOnUse" x="23" y="76" width="604" height="196">
<path d="M627 76.6582L627 272L23.0002 272L23.0002 76.6582L627 76.6582Z" fill="url(#paint18_linear_1161_44457)"/>
</mask>
<g mask="url(#mask4_1161_44457)">
<path d="M325 -26.541L325 291.903M721.531 -26.541L576.608 55.5511C486.143 106.795 440.446 159.288 440.446 211.961L440.445 291.903M-71.5321 -26.5411L73.3909 55.5511C163.856 106.795 209.554 159.288 209.554 211.961L209.554 291.903M510.717 -26.541C510.717 -26.541 425.771 70.3219 400.29 132.681C374.918 194.775 380.213 291.903 380.213 291.903M139.282 -26.541C139.282 -26.541 224.228 70.3218 249.709 132.681C275.081 194.775 269.786 291.903 269.786 291.903" stroke="url(#paint19_linear_1161_44457)" stroke-miterlimit="10" stroke-linejoin="round"/>
</g>
</g>
<g filter="url(#filter9_f_1161_44457)">
<mask id="mask5_1161_44457" style="mask-type:alpha" maskUnits="userSpaceOnUse" x="23" y="76" width="604" height="196">
<path d="M627 76.6582L627 272L23.0002 272L23.0002 76.6582L627 76.6582Z" fill="url(#paint20_linear_1161_44457)"/>
</mask>
<g mask="url(#mask5_1161_44457)">
<path d="M325 -26.541L325 291.903M721.531 -26.541L576.608 55.5511C486.143 106.795 440.446 159.288 440.446 211.961L440.445 291.903M-71.5321 -26.5411L73.3909 55.5511C163.856 106.795 209.554 159.288 209.554 211.961L209.554 291.903M510.717 -26.541C510.717 -26.541 425.771 70.3219 400.29 132.681C374.918 194.775 380.213 291.903 380.213 291.903M139.282 -26.541C139.282 -26.541 224.228 70.3218 249.709 132.681C275.081 194.775 269.786 291.903 269.786 291.903" stroke="url(#paint21_linear_1161_44457)" stroke-miterlimit="10" stroke-linejoin="round"/>
</g>
</g>
<g filter="url(#filter10_f_1161_44457)">
<mask id="mask6_1161_44457" style="mask-type:alpha" maskUnits="userSpaceOnUse" x="23" y="76" width="604" height="196">
<path d="M627 76.6582L627 272L23.0002 272L23.0002 76.6582L627 76.6582Z" fill="url(#paint22_linear_1161_44457)"/>
</mask>
<g mask="url(#mask6_1161_44457)">
<path d="M325 -26.541L325 291.903M721.531 -26.541L576.608 55.5511C486.143 106.795 440.446 159.288 440.446 211.961L440.445 291.903M-71.5321 -26.5411L73.3909 55.5511C163.856 106.795 209.554 159.288 209.554 211.961L209.554 291.903M510.717 -26.541C510.717 -26.541 425.771 70.3219 400.29 132.681C374.918 194.775 380.213 291.903 380.213 291.903M139.282 -26.541C139.282 -26.541 224.228 70.3218 249.709 132.681C275.081 194.775 269.786 291.903 269.786 291.903" stroke="url(#paint23_linear_1161_44457)" stroke-miterlimit="10" stroke-linejoin="round"/>
</g>
</g>
<g filter="url(#filter11_f_1161_44457)">
<mask id="mask7_1161_44457" style="mask-type:alpha" maskUnits="userSpaceOnUse" x="23" y="76" width="604" height="196">
<path d="M627 76.6582L627 272L23.0002 272L23.0002 76.6582L627 76.6582Z" fill="url(#paint24_linear_1161_44457)"/>
</mask>
<g mask="url(#mask7_1161_44457)">
<path d="M325 -26.541L325 291.903M721.531 -26.541L576.608 55.5511C486.143 106.795 440.446 159.288 440.446 211.961L440.445 291.903M-71.5321 -26.5411L73.3909 55.5511C163.856 106.795 209.554 159.288 209.554 211.961L209.554 291.903M510.717 -26.541C510.717 -26.541 425.771 70.3219 400.29 132.681C374.918 194.775 380.213 291.903 380.213 291.903M139.282 -26.541C139.282 -26.541 224.228 70.3218 249.709 132.681C275.081 194.775 269.786 291.903 269.786 291.903" stroke="url(#paint25_linear_1161_44457)" stroke-miterlimit="10" stroke-linejoin="round"/>
</g>
</g>
<g filter="url(#filter12_f_1161_44457)">
<mask id="mask8_1161_44457" style="mask-type:alpha" maskUnits="userSpaceOnUse" x="23" y="76" width="604" height="196">
<path d="M627 76.6582L627 272L23.0002 272L23.0002 76.6582L627 76.6582Z" fill="url(#paint26_linear_1161_44457)"/>
</mask>
<g mask="url(#mask8_1161_44457)">
<path d="M325 -26.541L325 291.903M721.531 -26.541L576.608 55.5511C486.143 106.795 440.446 159.288 440.446 211.961L440.445 291.903M-71.5321 -26.5411L73.3909 55.5511C163.856 106.795 209.554 159.288 209.554 211.961L209.554 291.903M510.717 -26.541C510.717 -26.541 425.771 70.3219 400.29 132.681C374.918 194.775 380.213 291.903 380.213 291.903M139.282 -26.541C139.282 -26.541 224.228 70.3218 249.709 132.681C275.081 194.775 269.786 291.903 269.786 291.903" stroke="url(#paint27_linear_1161_44457)" stroke-miterlimit="10" stroke-linejoin="round"/>
</g>
</g>
<g filter="url(#filter13_f_1161_44457)">
<mask id="mask9_1161_44457" style="mask-type:alpha" maskUnits="userSpaceOnUse" x="23" y="76" width="604" height="196">
<path d="M627 76.6582L627 272L23.0002 272L23.0002 76.6582L627 76.6582Z" fill="url(#paint28_linear_1161_44457)"/>
</mask>
<g mask="url(#mask9_1161_44457)">
<path d="M325 -26.541L325 291.903M721.531 -26.541L576.608 55.5511C486.143 106.795 440.446 159.288 440.446 211.961L440.445 291.903M-71.5321 -26.5411L73.3909 55.5511C163.856 106.795 209.554 159.288 209.554 211.961L209.554 291.903M510.717 -26.541C510.717 -26.541 425.771 70.3219 400.29 132.681C374.918 194.775 380.213 291.903 380.213 291.903M139.282 -26.541C139.282 -26.541 224.228 70.3218 249.709 132.681C275.081 194.775 269.786 291.903 269.786 291.903" stroke="url(#paint29_linear_1161_44457)" stroke-miterlimit="10" stroke-linejoin="round"/>
</g>
</g>
<g filter="url(#filter14_f_1161_44457)">
<mask id="mask10_1161_44457" style="mask-type:alpha" maskUnits="userSpaceOnUse" x="23" y="76" width="604" height="196">
<path d="M627 76.6582L627 272L23.0002 272L23.0002 76.6582L627 76.6582Z" fill="url(#paint30_linear_1161_44457)"/>
</mask>
<g mask="url(#mask10_1161_44457)">
<path d="M325 -26.541L325 291.903M721.531 -26.541L576.608 55.5511C486.143 106.795 440.446 159.288 440.446 211.961L440.445 291.903M-71.5321 -26.5411L73.3909 55.5511C163.856 106.795 209.554 159.288 209.554 211.961L209.554 291.903M510.717 -26.541C510.717 -26.541 425.771 70.3219 400.29 132.681C374.918 194.775 380.213 291.903 380.213 291.903M139.282 -26.541C139.282 -26.541 224.228 70.3218 249.709 132.681C275.081 194.775 269.786 291.903 269.786 291.903" stroke="url(#paint31_linear_1161_44457)" stroke-miterlimit="10" stroke-linejoin="round"/>
</g>
</g>
<g filter="url(#filter15_f_1161_44457)">
<mask id="mask11_1161_44457" style="mask-type:alpha" maskUnits="userSpaceOnUse" x="23" y="76" width="604" height="196">
<path d="M627 76.6582L627 272L23.0002 272L23.0002 76.6582L627 76.6582Z" fill="url(#paint32_linear_1161_44457)"/>
</mask>
<g mask="url(#mask11_1161_44457)">
<path d="M325 -26.541L325 291.903M721.531 -26.541L576.608 55.5511C486.143 106.795 440.446 159.288 440.446 211.961L440.445 291.903M-71.5321 -26.5411L73.3909 55.5511C163.856 106.795 209.554 159.288 209.554 211.961L209.554 291.903M510.717 -26.541C510.717 -26.541 425.771 70.3219 400.29 132.681C374.918 194.775 380.213 291.903 380.213 291.903M139.282 -26.541C139.282 -26.541 224.228 70.3218 249.709 132.681C275.081 194.775 269.786 291.903 269.786 291.903" stroke="url(#paint33_linear_1161_44457)" stroke-miterlimit="10" stroke-linejoin="round"/>
</g>
</g>
<g filter="url(#filter16_f_1161_44457)">
<mask id="mask12_1161_44457" style="mask-type:alpha" maskUnits="userSpaceOnUse" x="23" y="76" width="604" height="196">
<path d="M627 76.6582L627 272L23.0002 272L23.0002 76.6582L627 76.6582Z" fill="url(#paint34_linear_1161_44457)"/>
</mask>
<g mask="url(#mask12_1161_44457)">
<path d="M325 -26.541L325 291.903M721.531 -26.541L576.608 55.5511C486.143 106.795 440.446 159.288 440.446 211.961L440.445 291.903M-71.5321 -26.5411L73.3909 55.5511C163.856 106.795 209.554 159.288 209.554 211.961L209.554 291.903M510.717 -26.541C510.717 -26.541 425.771 70.3219 400.29 132.681C374.918 194.775 380.213 291.903 380.213 291.903M139.282 -26.541C139.282 -26.541 224.228 70.3218 249.709 132.681C275.081 194.775 269.786 291.903 269.786 291.903" stroke="url(#paint35_linear_1161_44457)" stroke-miterlimit="10" stroke-linejoin="round"/>
</g>
</g>
<g filter="url(#filter17_f_1161_44457)">
<mask id="mask13_1161_44457" style="mask-type:alpha" maskUnits="userSpaceOnUse" x="23" y="76" width="604" height="196">
<path d="M627 76.6582L627 272L23.0002 272L23.0002 76.6582L627 76.6582Z" fill="url(#paint36_linear_1161_44457)"/>
</mask>
<g mask="url(#mask13_1161_44457)">
<path d="M325 -26.541L325 291.903M721.531 -26.541L576.608 55.5511C486.143 106.795 440.446 159.288 440.446 211.961L440.445 291.903M-71.5321 -26.5411L73.3909 55.5511C163.856 106.795 209.554 159.288 209.554 211.961L209.554 291.903M510.717 -26.541C510.717 -26.541 425.771 70.3219 400.29 132.681C374.918 194.775 380.213 291.903 380.213 291.903M139.282 -26.541C139.282 -26.541 224.228 70.3218 249.709 132.681C275.081 194.775 269.786 291.903 269.786 291.903" stroke="url(#paint37_linear_1161_44457)" stroke-miterlimit="10" stroke-linejoin="round"/>
</g>
</g>
<g filter="url(#filter18_f_1161_44457)">
<mask id="mask14_1161_44457" style="mask-type:alpha" maskUnits="userSpaceOnUse" x="23" y="76" width="604" height="196">
<path d="M627 76.6582L627 272L23.0002 272L23.0002 76.6582L627 76.6582Z" fill="url(#paint38_linear_1161_44457)"/>
</mask>
<g mask="url(#mask14_1161_44457)">
<path d="M325 -26.541L325 291.903M721.531 -26.541L576.608 55.5511C486.143 106.795 440.446 159.288 440.446 211.961L440.445 291.903M-71.5321 -26.5411L73.3909 55.5511C163.856 106.795 209.554 159.288 209.554 211.961L209.554 291.903M510.717 -26.541C510.717 -26.541 425.771 70.3219 400.29 132.681C374.918 194.775 380.213 291.903 380.213 291.903M139.282 -26.541C139.282 -26.541 224.228 70.3218 249.709 132.681C275.081 194.775 269.786 291.903 269.786 291.903" stroke="url(#paint39_linear_1161_44457)" stroke-miterlimit="10" stroke-linejoin="round"/>
</g>
</g>
<g filter="url(#filter19_f_1161_44457)">
<mask id="mask15_1161_44457" style="mask-type:alpha" maskUnits="userSpaceOnUse" x="23" y="76" width="604" height="196">
<path d="M627 76.6582L627 272L23.0002 272L23.0002 76.6582L627 76.6582Z" fill="url(#paint40_linear_1161_44457)"/>
</mask>
<g mask="url(#mask15_1161_44457)">
<path d="M325 -26.541L325 291.903M721.531 -26.541L576.608 55.5511C486.143 106.795 440.446 159.288 440.446 211.961L440.445 291.903M-71.5321 -26.5411L73.3909 55.5511C163.856 106.795 209.554 159.288 209.554 211.961L209.554 291.903M510.717 -26.541C510.717 -26.541 425.771 70.3219 400.29 132.681C374.918 194.775 380.213 291.903 380.213 291.903M139.282 -26.541C139.282 -26.541 224.228 70.3218 249.709 132.681C275.081 194.775 269.786 291.903 269.786 291.903" stroke="url(#paint41_linear_1161_44457)" stroke-miterlimit="10" stroke-linejoin="round"/>
</g>
</g>
<g filter="url(#filter20_f_1161_44457)">
<mask id="mask16_1161_44457" style="mask-type:alpha" maskUnits="userSpaceOnUse" x="23" y="76" width="604" height="196">
<path d="M627 76.6582L627 272L23.0002 272L23.0002 76.6582L627 76.6582Z" fill="url(#paint42_linear_1161_44457)"/>
</mask>
<g mask="url(#mask16_1161_44457)">
<path d="M325 -26.541L325 291.903M721.531 -26.541L576.608 55.5511C486.143 106.795 440.446 159.288 440.446 211.961L440.445 291.903M-71.5321 -26.5411L73.3909 55.5511C163.856 106.795 209.554 159.288 209.554 211.961L209.554 291.903M510.717 -26.541C510.717 -26.541 425.771 70.3219 400.29 132.681C374.918 194.775 380.213 291.903 380.213 291.903M139.282 -26.541C139.282 -26.541 224.228 70.3218 249.709 132.681C275.081 194.775 269.786 291.903 269.786 291.903" stroke="url(#paint43_linear_1161_44457)" stroke-miterlimit="10" stroke-linejoin="round"/>
</g>
</g>
<g filter="url(#filter21_f_1161_44457)">
<mask id="mask17_1161_44457" style="mask-type:alpha" maskUnits="userSpaceOnUse" x="23" y="76" width="604" height="196">
<path d="M627 76.6582L627 272L23.0002 272L23.0002 76.6582L627 76.6582Z" fill="url(#paint44_linear_1161_44457)"/>
</mask>
<g mask="url(#mask17_1161_44457)">
<path d="M325 -26.541L325 291.903M721.531 -26.541L576.608 55.5511C486.143 106.795 440.446 159.288 440.446 211.961L440.445 291.903M-71.5321 -26.5411L73.3909 55.5511C163.856 106.795 209.554 159.288 209.554 211.961L209.554 291.903M510.717 -26.541C510.717 -26.541 425.771 70.3219 400.29 132.681C374.918 194.775 380.213 291.903 380.213 291.903M139.282 -26.541C139.282 -26.541 224.228 70.3218 249.709 132.681C275.081 194.775 269.786 291.903 269.786 291.903" stroke="url(#paint45_linear_1161_44457)" stroke-miterlimit="10" stroke-linejoin="round"/>
</g>
</g>
<g filter="url(#filter22_f_1161_44457)">
<mask id="mask18_1161_44457" style="mask-type:alpha" maskUnits="userSpaceOnUse" x="23" y="76" width="604" height="196">
<path d="M627 76.6582L627 272L23.0002 272L23.0002 76.6582L627 76.6582Z" fill="url(#paint46_linear_1161_44457)"/>
</mask>
<g mask="url(#mask18_1161_44457)">
<path d="M325 -26.541L325 291.903M721.531 -26.541L576.608 55.5511C486.143 106.795 440.446 159.288 440.446 211.961L440.445 291.903M-71.5321 -26.5411L73.3909 55.5511C163.856 106.795 209.554 159.288 209.554 211.961L209.554 291.903M510.717 -26.541C510.717 -26.541 425.771 70.3219 400.29 132.681C374.918 194.775 380.213 291.903 380.213 291.903M139.282 -26.541C139.282 -26.541 224.228 70.3218 249.709 132.681C275.081 194.775 269.786 291.903 269.786 291.903" stroke="url(#paint47_linear_1161_44457)" stroke-miterlimit="10" stroke-linejoin="round"/>
</g>
</g>
<g filter="url(#filter23_f_1161_44457)">
<mask id="mask19_1161_44457" style="mask-type:alpha" maskUnits="userSpaceOnUse" x="23" y="76" width="604" height="196">
<path d="M627 76.6582L627 272L23.0002 272L23.0002 76.6582L627 76.6582Z" fill="url(#paint48_linear_1161_44457)"/>
</mask>
<g mask="url(#mask19_1161_44457)">
<path d="M325 -26.541L325 291.903M721.531 -26.541L576.608 55.5511C486.143 106.795 440.446 159.288 440.446 211.961L440.445 291.903M-71.5321 -26.5411L73.3909 55.5511C163.856 106.795 209.554 159.288 209.554 211.961L209.554 291.903M510.717 -26.541C510.717 -26.541 425.771 70.3219 400.29 132.681C374.918 194.775 380.213 291.903 380.213 291.903M139.282 -26.541C139.282 -26.541 224.228 70.3218 249.709 132.681C275.081 194.775 269.786 291.903 269.786 291.903" stroke="url(#paint49_linear_1161_44457)" stroke-miterlimit="10" stroke-linejoin="round"/>
</g>
</g>
<g filter="url(#filter24_f_1161_44457)">
<mask id="mask20_1161_44457" style="mask-type:alpha" maskUnits="userSpaceOnUse" x="23" y="76" width="604" height="196">
<path d="M627 76.6582L627 272L23.0002 272L23.0002 76.6582L627 76.6582Z" fill="url(#paint50_linear_1161_44457)"/>
</mask>
<g mask="url(#mask20_1161_44457)">
<path d="M325 -26.541L325 291.903M721.531 -26.541L576.608 55.5511C486.143 106.795 440.446 159.288 440.446 211.961L440.445 291.903M-71.5321 -26.5411L73.3909 55.5511C163.856 106.795 209.554 159.288 209.554 211.961L209.554 291.903M510.717 -26.541C510.717 -26.541 425.771 70.3219 400.29 132.681C374.918 194.775 380.213 291.903 380.213 291.903M139.282 -26.541C139.282 -26.541 224.228 70.3218 249.709 132.681C275.081 194.775 269.786 291.903 269.786 291.903" stroke="url(#paint51_linear_1161_44457)" stroke-miterlimit="10" stroke-linejoin="round"/>
</g>
</g>
<ellipse cx="108.026" cy="76.3911" rx="2.20605" ry="1.94386" fill="white"/>
<ellipse cx="218.452" cy="76.3911" rx="2.20605" ry="1.94386" fill="white"/>
<ellipse cx="324.696" cy="76.3911" rx="2.20605" ry="1.94386" fill="white"/>
<ellipse cx="430.94" cy="76.3911" rx="2.20605" ry="1.94386" fill="white"/>
<ellipse cx="542.202" cy="76.3911" rx="2.20605" ry="1.94386" fill="white"/>
<g filter="url(#filter25_f_1161_44457)">
<rect x="65.625" y="238.085" width="517.903" height="91.9149" fill="url(#paint52_linear_1161_44457)" fill-opacity="0.5"/>
</g>
<path d="M65.623 221.063H583.526M65.623 221.063V312.978M65.623 221.063L583.526 312.978M583.526 221.063V312.978M583.526 221.063L65.623 312.978M583.526 312.978H65.623" stroke="url(#paint53_linear_1161_44457)"/>
<ellipse cx="324.692" cy="266.712" rx="2.24258" ry="2.24429" fill="#F42ADB"/>
<ellipse cx="65.3168" cy="313.521" rx="2.24258" ry="2.24429" fill="#F42ADB"/>
<ellipse cx="65.3168" cy="220.755" rx="2.24258" ry="2.24429" fill="#FF2ADD"/>
<ellipse cx="583.219" cy="220.755" rx="2.24258" ry="2.24429" fill="#F42ADB"/>
<ellipse cx="583.219" cy="312.67" rx="2.24258" ry="2.24429" fill="#F42ADB"/>
<defs>
<filter id="filter0_f_1161_44457" x="21.623" y="0" width="175.594" height="149.276" filterUnits="userSpaceOnUse" color-interpolation-filters="sRGB">
<feFlood flood-opacity="0" result="BackgroundImageFix"/>
<feBlend mode="normal" in="SourceGraphic" in2="BackgroundImageFix" result="shape"/>
<feGaussianBlur stdDeviation="22" result="effect1_foregroundBlur_1161_44457"/>
</filter>
<filter id="filter1_f_1161_44457" x="129.627" y="0" width="175.594" height="149.276" filterUnits="userSpaceOnUse" color-interpolation-filters="sRGB">
<feFlood flood-opacity="0" result="BackgroundImageFix"/>
<feBlend mode="normal" in="SourceGraphic" in2="BackgroundImageFix" result="shape"/>
<feGaussianBlur stdDeviation="22" result="effect1_foregroundBlur_1161_44457"/>
</filter>
<filter id="filter2_f_1161_44457" x="237.631" y="0" width="175.594" height="149.276" filterUnits="userSpaceOnUse" color-interpolation-filters="sRGB">
<feFlood flood-opacity="0" result="BackgroundImageFix"/>
<feBlend mode="normal" in="SourceGraphic" in2="BackgroundImageFix" result="shape"/>
<feGaussianBlur stdDeviation="22" result="effect1_foregroundBlur_1161_44457"/>
</filter>
<filter id="filter3_f_1161_44457" x="345.631" y="0" width="175.594" height="149.276" filterUnits="userSpaceOnUse" color-interpolation-filters="sRGB">
<feFlood flood-opacity="0" result="BackgroundImageFix"/>
<feBlend mode="normal" in="SourceGraphic" in2="BackgroundImageFix" result="shape"/>
<feGaussianBlur stdDeviation="22" result="effect1_foregroundBlur_1161_44457"/>
</filter>
<filter id="filter4_f_1161_44457" x="453.635" y="0" width="175.594" height="149.276" filterUnits="userSpaceOnUse" color-interpolation-filters="sRGB">
<feFlood flood-opacity="0" result="BackgroundImageFix"/>
<feBlend mode="normal" in="SourceGraphic" in2="BackgroundImageFix" result="shape"/>
<feGaussianBlur stdDeviation="22" result="effect1_foregroundBlur_1161_44457"/>
</filter>
<filter id="filter5_f_1161_44457" x="17" y="70.6582" width="616" height="207.342" filterUnits="userSpaceOnUse" color-interpolation-filters="sRGB">
<feFlood flood-opacity="0" result="BackgroundImageFix"/>
<feBlend mode="normal" in="SourceGraphic" in2="BackgroundImageFix" result="shape"/>
<feGaussianBlur stdDeviation="3" result="effect1_foregroundBlur_1161_44457"/>
</filter>
<filter id="filter6_f_1161_44457" x="17" y="70.6582" width="616" height="207.342" filterUnits="userSpaceOnUse" color-interpolation-filters="sRGB">
<feFlood flood-opacity="0" result="BackgroundImageFix"/>
<feBlend mode="normal" in="SourceGraphic" in2="BackgroundImageFix" result="shape"/>
<feGaussianBlur stdDeviation="3" result="effect1_foregroundBlur_1161_44457"/>
</filter>
<filter id="filter7_f_1161_44457" x="17" y="70.6582" width="616" height="207.342" filterUnits="userSpaceOnUse" color-interpolation-filters="sRGB">
<feFlood flood-opacity="0" result="BackgroundImageFix"/>
<feBlend mode="normal" in="SourceGraphic" in2="BackgroundImageFix" result="shape"/>
<feGaussianBlur stdDeviation="3" result="effect1_foregroundBlur_1161_44457"/>
</filter>
<filter id="filter8_f_1161_44457" x="0" y="53.6582" width="650" height="241.342" filterUnits="userSpaceOnUse" color-interpolation-filters="sRGB">
<feFlood flood-opacity="0" result="BackgroundImageFix"/>
<feBlend mode="normal" in="SourceGraphic" in2="BackgroundImageFix" result="shape"/>
<feGaussianBlur stdDeviation="11.5" result="effect1_foregroundBlur_1161_44457"/>
</filter>
<filter id="filter9_f_1161_44457" x="0" y="53.6582" width="650" height="241.342" filterUnits="userSpaceOnUse" color-interpolation-filters="sRGB">
<feFlood flood-opacity="0" result="BackgroundImageFix"/>
<feBlend mode="normal" in="SourceGraphic" in2="BackgroundImageFix" result="shape"/>
<feGaussianBlur stdDeviation="11.5" result="effect1_foregroundBlur_1161_44457"/>
</filter>
<filter id="filter10_f_1161_44457" x="0" y="53.6582" width="650" height="241.342" filterUnits="userSpaceOnUse" color-interpolation-filters="sRGB">
<feFlood flood-opacity="0" result="BackgroundImageFix"/>
<feBlend mode="normal" in="SourceGraphic" in2="BackgroundImageFix" result="shape"/>
<feGaussianBlur stdDeviation="11.5" result="effect1_foregroundBlur_1161_44457"/>
</filter>
<filter id="filter11_f_1161_44457" x="0" y="53.6582" width="650" height="241.342" filterUnits="userSpaceOnUse" color-interpolation-filters="sRGB">
<feFlood flood-opacity="0" result="BackgroundImageFix"/>
<feBlend mode="normal" in="SourceGraphic" in2="BackgroundImageFix" result="shape"/>
<feGaussianBlur stdDeviation="11.5" result="effect1_foregroundBlur_1161_44457"/>
</filter>
<filter id="filter12_f_1161_44457" x="0" y="53.6582" width="650" height="241.342" filterUnits="userSpaceOnUse" color-interpolation-filters="sRGB">
<feFlood flood-opacity="0" result="BackgroundImageFix"/>
<feBlend mode="normal" in="SourceGraphic" in2="BackgroundImageFix" result="shape"/>
<feGaussianBlur stdDeviation="11.5" result="effect1_foregroundBlur_1161_44457"/>
</filter>
<filter id="filter13_f_1161_44457" x="0" y="53.6582" width="650" height="241.342" filterUnits="userSpaceOnUse" color-interpolation-filters="sRGB">
<feFlood flood-opacity="0" result="BackgroundImageFix"/>
<feBlend mode="normal" in="SourceGraphic" in2="BackgroundImageFix" result="shape"/>
<feGaussianBlur stdDeviation="11.5" result="effect1_foregroundBlur_1161_44457"/>
</filter>
<filter id="filter14_f_1161_44457" x="0" y="53.6582" width="650" height="241.342" filterUnits="userSpaceOnUse" color-interpolation-filters="sRGB">
<feFlood flood-opacity="0" result="BackgroundImageFix"/>
<feBlend mode="normal" in="SourceGraphic" in2="BackgroundImageFix" result="shape"/>
<feGaussianBlur stdDeviation="11.5" result="effect1_foregroundBlur_1161_44457"/>
</filter>
<filter id="filter15_f_1161_44457" x="0" y="53.6582" width="650" height="241.342" filterUnits="userSpaceOnUse" color-interpolation-filters="sRGB">
<feFlood flood-opacity="0" result="BackgroundImageFix"/>
<feBlend mode="normal" in="SourceGraphic" in2="BackgroundImageFix" result="shape"/>
<feGaussianBlur stdDeviation="11.5" result="effect1_foregroundBlur_1161_44457"/>
</filter>
<filter id="filter16_f_1161_44457" x="0" y="53.6582" width="650" height="241.342" filterUnits="userSpaceOnUse" color-interpolation-filters="sRGB">
<feFlood flood-opacity="0" result="BackgroundImageFix"/>
<feBlend mode="normal" in="SourceGraphic" in2="BackgroundImageFix" result="shape"/>
<feGaussianBlur stdDeviation="11.5" result="effect1_foregroundBlur_1161_44457"/>
</filter>
<filter id="filter17_f_1161_44457" x="0" y="53.6582" width="650" height="241.342" filterUnits="userSpaceOnUse" color-interpolation-filters="sRGB">
<feFlood flood-opacity="0" result="BackgroundImageFix"/>
<feBlend mode="normal" in="SourceGraphic" in2="BackgroundImageFix" result="shape"/>
<feGaussianBlur stdDeviation="11.5" result="effect1_foregroundBlur_1161_44457"/>
</filter>
<filter id="filter18_f_1161_44457" x="0" y="53.6582" width="650" height="241.342" filterUnits="userSpaceOnUse" color-interpolation-filters="sRGB">
<feFlood flood-opacity="0" result="BackgroundImageFix"/>
<feBlend mode="normal" in="SourceGraphic" in2="BackgroundImageFix" result="shape"/>
<feGaussianBlur stdDeviation="11.5" result="effect1_foregroundBlur_1161_44457"/>
</filter>
<filter id="filter19_f_1161_44457" x="0" y="53.6582" width="650" height="241.342" filterUnits="userSpaceOnUse" color-interpolation-filters="sRGB">
<feFlood flood-opacity="0" result="BackgroundImageFix"/>
<feBlend mode="normal" in="SourceGraphic" in2="BackgroundImageFix" result="shape"/>
<feGaussianBlur stdDeviation="11.5" result="effect1_foregroundBlur_1161_44457"/>
</filter>
<filter id="filter20_f_1161_44457" x="0" y="53.6582" width="650" height="241.342" filterUnits="userSpaceOnUse" color-interpolation-filters="sRGB">
<feFlood flood-opacity="0" result="BackgroundImageFix"/>
<feBlend mode="normal" in="SourceGraphic" in2="BackgroundImageFix" result="shape"/>
<feGaussianBlur stdDeviation="11.5" result="effect1_foregroundBlur_1161_44457"/>
</filter>
<filter id="filter21_f_1161_44457" x="0" y="53.6582" width="650" height="241.342" filterUnits="userSpaceOnUse" color-interpolation-filters="sRGB">
<feFlood flood-opacity="0" result="BackgroundImageFix"/>
<feBlend mode="normal" in="SourceGraphic" in2="BackgroundImageFix" result="shape"/>
<feGaussianBlur stdDeviation="11.5" result="effect1_foregroundBlur_1161_44457"/>
</filter>
<filter id="filter22_f_1161_44457" x="0" y="53.6582" width="650" height="241.342" filterUnits="userSpaceOnUse" color-interpolation-filters="sRGB">
<feFlood flood-opacity="0" result="BackgroundImageFix"/>
<feBlend mode="normal" in="SourceGraphic" in2="BackgroundImageFix" result="shape"/>
<feGaussianBlur stdDeviation="11.5" result="effect1_foregroundBlur_1161_44457"/>
</filter>
<filter id="filter23_f_1161_44457" x="0" y="53.6582" width="650" height="241.342" filterUnits="userSpaceOnUse" color-interpolation-filters="sRGB">
<feFlood flood-opacity="0" result="BackgroundImageFix"/>
<feBlend mode="normal" in="SourceGraphic" in2="BackgroundImageFix" result="shape"/>
<feGaussianBlur stdDeviation="11.5" result="effect1_foregroundBlur_1161_44457"/>
</filter>
<filter id="filter24_f_1161_44457" x="0" y="53.6582" width="650" height="241.342" filterUnits="userSpaceOnUse" color-interpolation-filters="sRGB">
<feFlood flood-opacity="0" result="BackgroundImageFix"/>
<feBlend mode="normal" in="SourceGraphic" in2="BackgroundImageFix" result="shape"/>
<feGaussianBlur stdDeviation="11.5" result="effect1_foregroundBlur_1161_44457"/>
</filter>
<filter id="filter25_f_1161_44457" x="33.625" y="206.085" width="581.902" height="155.915" filterUnits="userSpaceOnUse" color-interpolation-filters="sRGB">
<feFlood flood-opacity="0" result="BackgroundImageFix"/>
<feBlend mode="normal" in="SourceGraphic" in2="BackgroundImageFix" result="shape"/>
<feGaussianBlur stdDeviation="16" result="effect1_foregroundBlur_1161_44457"/>
</filter>
<linearGradient id="paint0_linear_1161_44457" x1="109.419" y1="44" x2="109.419" y2="105.277" gradientUnits="userSpaceOnUse">
<stop stop-color="#D0691F"/>
<stop offset="1" stop-color="#971563" stop-opacity="0.1"/>
</linearGradient>
<linearGradient id="paint1_linear_1161_44457" x1="109.419" y1="44" x2="109.419" y2="118.812" gradientUnits="userSpaceOnUse">
<stop stop-color="#D0691F"/>
<stop offset="0.84432" stop-color="#971563" stop-opacity="0.1"/>
</linearGradient>
<linearGradient id="paint2_linear_1161_44457" x1="217.423" y1="44" x2="217.423" y2="105.277" gradientUnits="userSpaceOnUse">
<stop stop-color="#D0691F"/>
<stop offset="1" stop-color="#971563" stop-opacity="0.1"/>
</linearGradient>
<linearGradient id="paint3_linear_1161_44457" x1="217.423" y1="44" x2="217.423" y2="118.812" gradientUnits="userSpaceOnUse">
<stop stop-color="#D0691F"/>
<stop offset="0.84432" stop-color="#971563" stop-opacity="0.1"/>
</linearGradient>
<linearGradient id="paint4_linear_1161_44457" x1="325.427" y1="44" x2="325.427" y2="105.277" gradientUnits="userSpaceOnUse">
<stop stop-color="#D0691F"/>
<stop offset="1" stop-color="#971563" stop-opacity="0.1"/>
</linearGradient>
<linearGradient id="paint5_linear_1161_44457" x1="325.427" y1="44" x2="325.427" y2="118.812" gradientUnits="userSpaceOnUse">
<stop stop-color="#D0691F"/>
<stop offset="0.84432" stop-color="#971563" stop-opacity="0.1"/>
</linearGradient>
<linearGradient id="paint6_linear_1161_44457" x1="433.427" y1="44" x2="433.427" y2="105.277" gradientUnits="userSpaceOnUse">
<stop stop-color="#D0691F"/>
<stop offset="1" stop-color="#971563" stop-opacity="0.1"/>
</linearGradient>
<linearGradient id="paint7_linear_1161_44457" x1="433.427" y1="44" x2="433.427" y2="118.812" gradientUnits="userSpaceOnUse">
<stop stop-color="#D0691F"/>
<stop offset="0.84432" stop-color="#971563" stop-opacity="0.1"/>
</linearGradient>
<linearGradient id="paint8_linear_1161_44457" x1="541.431" y1="44" x2="541.431" y2="105.277" gradientUnits="userSpaceOnUse">
<stop stop-color="#D0691F"/>
<stop offset="1" stop-color="#971563" stop-opacity="0.1"/>
</linearGradient>
<linearGradient id="paint9_linear_1161_44457" x1="541.431" y1="44" x2="541.431" y2="118.812" gradientUnits="userSpaceOnUse">
<stop stop-color="#D0691F"/>
<stop offset="0.84432" stop-color="#971563" stop-opacity="0.1"/>
</linearGradient>
<linearGradient id="paint10_linear_1161_44457" x1="322.659" y1="76.6582" x2="322.659" y2="272" gradientUnits="userSpaceOnUse">
<stop stop-color="#D9D9D9"/>
<stop offset="1" stop-color="#737373" stop-opacity="0"/>
</linearGradient>
<linearGradient id="paint11_linear_1161_44457" x1="325" y1="291.903" x2="325.068" y2="-11.8833" gradientUnits="userSpaceOnUse">
<stop stop-color="#ED30B8"/>
<stop offset="1" stop-color="#FF8F3F"/>
</linearGradient>
<linearGradient id="paint12_linear_1161_44457" x1="322.659" y1="76.6582" x2="322.659" y2="272" gradientUnits="userSpaceOnUse">
<stop stop-color="#D9D9D9"/>
<stop offset="1" stop-color="#737373" stop-opacity="0"/>
</linearGradient>
<linearGradient id="paint13_linear_1161_44457" x1="325" y1="291.903" x2="325.068" y2="-11.8833" gradientUnits="userSpaceOnUse">
<stop stop-color="#ED30B8"/>
<stop offset="1" stop-color="#FF8F3F"/>
</linearGradient>
<linearGradient id="paint14_linear_1161_44457" x1="322.659" y1="76.6582" x2="322.659" y2="272" gradientUnits="userSpaceOnUse">
<stop stop-color="#D9D9D9"/>
<stop offset="1" stop-color="#737373" stop-opacity="0"/>
</linearGradient>
<linearGradient id="paint15_linear_1161_44457" x1="325" y1="291.903" x2="325.068" y2="-11.8833" gradientUnits="userSpaceOnUse">
<stop stop-color="#ED30B8"/>
<stop offset="1" stop-color="#FF8F3F"/>
</linearGradient>
<linearGradient id="paint16_linear_1161_44457" x1="322.659" y1="76.6582" x2="322.659" y2="272" gradientUnits="userSpaceOnUse">
<stop stop-color="#D9D9D9"/>
<stop offset="1" stop-color="#737373" stop-opacity="0"/>
</linearGradient>
<linearGradient id="paint17_linear_1161_44457" x1="325" y1="291.903" x2="325.068" y2="-11.8833" gradientUnits="userSpaceOnUse">
<stop stop-color="#ED30B8"/>
<stop offset="1" stop-color="#FF8F3F"/>
</linearGradient>
<linearGradient id="paint18_linear_1161_44457" x1="322.659" y1="76.6582" x2="322.659" y2="272" gradientUnits="userSpaceOnUse">
<stop stop-color="#D9D9D9"/>
<stop offset="1" stop-color="#737373" stop-opacity="0"/>
</linearGradient>
<linearGradient id="paint19_linear_1161_44457" x1="325" y1="291.903" x2="325.068" y2="-11.8833" gradientUnits="userSpaceOnUse">
<stop stop-color="#ED30B8"/>
<stop offset="1" stop-color="#FF8F3F"/>
</linearGradient>
<linearGradient id="paint20_linear_1161_44457" x1="322.659" y1="76.6582" x2="322.659" y2="272" gradientUnits="userSpaceOnUse">
<stop stop-color="#D9D9D9"/>
<stop offset="1" stop-color="#737373" stop-opacity="0"/>
</linearGradient>
<linearGradient id="paint21_linear_1161_44457" x1="325" y1="291.903" x2="325.068" y2="-11.8833" gradientUnits="userSpaceOnUse">
<stop stop-color="#ED30B8"/>
<stop offset="1" stop-color="#FF8F3F"/>
</linearGradient>
<linearGradient id="paint22_linear_1161_44457" x1="322.659" y1="76.6582" x2="322.659" y2="272" gradientUnits="userSpaceOnUse">
<stop stop-color="#D9D9D9"/>
<stop offset="1" stop-color="#737373" stop-opacity="0"/>
</linearGradient>
<linearGradient id="paint23_linear_1161_44457" x1="325" y1="291.903" x2="325.068" y2="-11.8833" gradientUnits="userSpaceOnUse">
<stop stop-color="#ED30B8"/>
<stop offset="1" stop-color="#FF8F3F"/>
</linearGradient>
<linearGradient id="paint24_linear_1161_44457" x1="322.659" y1="76.6582" x2="322.659" y2="272" gradientUnits="userSpaceOnUse">
<stop stop-color="#D9D9D9"/>
<stop offset="1" stop-color="#737373" stop-opacity="0"/>
</linearGradient>
<linearGradient id="paint25_linear_1161_44457" x1="325" y1="291.903" x2="325.068" y2="-11.8833" gradientUnits="userSpaceOnUse">
<stop stop-color="#ED30B8"/>
<stop offset="1" stop-color="#FF8F3F"/>
</linearGradient>
<linearGradient id="paint26_linear_1161_44457" x1="322.659" y1="76.6582" x2="322.659" y2="272" gradientUnits="userSpaceOnUse">
<stop stop-color="#D9D9D9"/>
<stop offset="1" stop-color="#737373" stop-opacity="0"/>
</linearGradient>
<linearGradient id="paint27_linear_1161_44457" x1="325" y1="291.903" x2="325.068" y2="-11.8833" gradientUnits="userSpaceOnUse">
<stop stop-color="#ED30B8"/>
<stop offset="1" stop-color="#FF8F3F"/>
</linearGradient>
<linearGradient id="paint28_linear_1161_44457" x1="322.659" y1="76.6582" x2="322.659" y2="272" gradientUnits="userSpaceOnUse">
<stop stop-color="#D9D9D9"/>
<stop offset="1" stop-color="#737373" stop-opacity="0"/>
</linearGradient>
<linearGradient id="paint29_linear_1161_44457" x1="325" y1="291.903" x2="325.068" y2="-11.8833" gradientUnits="userSpaceOnUse">
<stop stop-color="#ED30B8"/>
<stop offset="1" stop-color="#FF8F3F"/>
</linearGradient>
<linearGradient id="paint30_linear_1161_44457" x1="322.659" y1="76.6582" x2="322.659" y2="272" gradientUnits="userSpaceOnUse">
<stop stop-color="#D9D9D9"/>
<stop offset="1" stop-color="#737373" stop-opacity="0"/>
</linearGradient>
<linearGradient id="paint31_linear_1161_44457" x1="325" y1="291.903" x2="325.068" y2="-11.8833" gradientUnits="userSpaceOnUse">
<stop stop-color="#ED30B8"/>
<stop offset="1" stop-color="#FF8F3F"/>
</linearGradient>
<linearGradient id="paint32_linear_1161_44457" x1="322.659" y1="76.6582" x2="322.659" y2="272" gradientUnits="userSpaceOnUse">
<stop stop-color="#D9D9D9"/>
<stop offset="1" stop-color="#737373" stop-opacity="0"/>
</linearGradient>
<linearGradient id="paint33_linear_1161_44457" x1="325" y1="291.903" x2="325.068" y2="-11.8833" gradientUnits="userSpaceOnUse">
<stop stop-color="#ED30B8"/>
<stop offset="1" stop-color="#FF8F3F"/>
</linearGradient>
<linearGradient id="paint34_linear_1161_44457" x1="322.659" y1="76.6582" x2="322.659" y2="272" gradientUnits="userSpaceOnUse">
<stop stop-color="#D9D9D9"/>
<stop offset="1" stop-color="#737373" stop-opacity="0"/>
</linearGradient>
<linearGradient id="paint35_linear_1161_44457" x1="325" y1="291.903" x2="325.068" y2="-11.8833" gradientUnits="userSpaceOnUse">
<stop stop-color="#ED30B8"/>
<stop offset="1" stop-color="#FF8F3F"/>
</linearGradient>
<linearGradient id="paint36_linear_1161_44457" x1="322.659" y1="76.6582" x2="322.659" y2="272" gradientUnits="userSpaceOnUse">
<stop stop-color="#D9D9D9"/>
<stop offset="1" stop-color="#737373" stop-opacity="0"/>
</linearGradient>
<linearGradient id="paint37_linear_1161_44457" x1="325" y1="291.903" x2="325.068" y2="-11.8833" gradientUnits="userSpaceOnUse">
<stop stop-color="#ED30B8"/>
<stop offset="1" stop-color="#FF8F3F"/>
</linearGradient>
<linearGradient id="paint38_linear_1161_44457" x1="322.659" y1="76.6582" x2="322.659" y2="272" gradientUnits="userSpaceOnUse">
<stop stop-color="#D9D9D9"/>
<stop offset="1" stop-color="#737373" stop-opacity="0"/>
</linearGradient>
<linearGradient id="paint39_linear_1161_44457" x1="325" y1="291.903" x2="325.068" y2="-11.8833" gradientUnits="userSpaceOnUse">
<stop stop-color="#ED30B8"/>
<stop offset="1" stop-color="#FF8F3F"/>
</linearGradient>
<linearGradient id="paint40_linear_1161_44457" x1="322.659" y1="76.6582" x2="322.659" y2="272" gradientUnits="userSpaceOnUse">
<stop stop-color="#D9D9D9"/>
<stop offset="1" stop-color="#737373" stop-opacity="0"/>
</linearGradient>
<linearGradient id="paint41_linear_1161_44457" x1="325" y1="291.903" x2="325.068" y2="-11.8833" gradientUnits="userSpaceOnUse">
<stop stop-color="#ED30B8"/>
<stop offset="1" stop-color="#FF8F3F"/>
</linearGradient>
<linearGradient id="paint42_linear_1161_44457" x1="322.659" y1="76.6582" x2="322.659" y2="272" gradientUnits="userSpaceOnUse">
<stop stop-color="#D9D9D9"/>
<stop offset="1" stop-color="#737373" stop-opacity="0"/>
</linearGradient>
<linearGradient id="paint43_linear_1161_44457" x1="325" y1="291.903" x2="325.068" y2="-11.8833" gradientUnits="userSpaceOnUse">
<stop stop-color="#ED30B8"/>
<stop offset="1" stop-color="#FF8F3F"/>
</linearGradient>
<linearGradient id="paint44_linear_1161_44457" x1="322.659" y1="76.6582" x2="322.659" y2="272" gradientUnits="userSpaceOnUse">
<stop stop-color="#D9D9D9"/>
<stop offset="1" stop-color="#737373" stop-opacity="0"/>
</linearGradient>
<linearGradient id="paint45_linear_1161_44457" x1="325" y1="291.903" x2="325.068" y2="-11.8833" gradientUnits="userSpaceOnUse">
<stop stop-color="#ED30B8"/>
<stop offset="1" stop-color="#FF8F3F"/>
</linearGradient>
<linearGradient id="paint46_linear_1161_44457" x1="322.659" y1="76.6582" x2="322.659" y2="272" gradientUnits="userSpaceOnUse">
<stop stop-color="#D9D9D9"/>
<stop offset="1" stop-color="#737373" stop-opacity="0"/>
</linearGradient>
<linearGradient id="paint47_linear_1161_44457" x1="325" y1="291.903" x2="325.068" y2="-11.8833" gradientUnits="userSpaceOnUse">
<stop stop-color="#ED30B8"/>
<stop offset="1" stop-color="#FF8F3F"/>
</linearGradient>
<linearGradient id="paint48_linear_1161_44457" x1="322.659" y1="76.6582" x2="322.659" y2="272" gradientUnits="userSpaceOnUse">
<stop stop-color="#D9D9D9"/>
<stop offset="1" stop-color="#737373" stop-opacity="0"/>
</linearGradient>
<linearGradient id="paint49_linear_1161_44457" x1="325" y1="291.903" x2="325.068" y2="-11.8833" gradientUnits="userSpaceOnUse">
<stop stop-color="#ED30B8"/>
<stop offset="1" stop-color="#FF8F3F"/>
</linearGradient>
<linearGradient id="paint50_linear_1161_44457" x1="322.659" y1="76.6582" x2="322.659" y2="272" gradientUnits="userSpaceOnUse">
<stop stop-color="#D9D9D9"/>
<stop offset="1" stop-color="#737373" stop-opacity="0"/>
</linearGradient>
<linearGradient id="paint51_linear_1161_44457" x1="325" y1="291.903" x2="325.068" y2="-11.8833" gradientUnits="userSpaceOnUse">
<stop stop-color="#ED30B8"/>
<stop offset="1" stop-color="#FF8F3F"/>
</linearGradient>
<linearGradient id="paint52_linear_1161_44457" x1="324.577" y1="238.085" x2="324.577" y2="330" gradientUnits="userSpaceOnUse">
<stop stop-color="#FF2ADD"/>
<stop offset="1" stop-color="#4642FF" stop-opacity="0.5"/>
</linearGradient>
<linearGradient id="paint53_linear_1161_44457" x1="324.575" y1="221.063" x2="324.575" y2="312.978" gradientUnits="userSpaceOnUse">
<stop stop-color="#FF2ADD"/>
<stop offset="1" stop-color="#4642FF" stop-opacity="0.5"/>
</linearGradient>
</defs>
</svg>
