<svg width="604" height="403" viewBox="0 0 604 403" fill="none" xmlns="http://www.w3.org/2000/svg">
<path d="M208.162 44.4709L51.9502 202.311L209.663 358.647L365.875 200.807L208.162 44.4709Z" stroke="url(#paint0_linear_1129_10601)" stroke-opacity="0.5"/>
<g filter="url(#filter0_f_1129_10601)">
<path d="M208.912 44.4687L51.9482 201.559L208.912 358.649L365.876 201.559L208.912 44.4687Z" fill="url(#paint1_linear_1129_10601)" fill-opacity="0.5"/>
</g>
<path d="M365.876 201.559L208.912 306.285L51.9482 201.559L208.912 96.832L365.876 201.559Z" stroke="url(#paint2_linear_1129_10601)" stroke-opacity="0.5"/>
<path d="M365.876 201.559L208.912 253.922L51.9482 201.559L208.912 149.195L365.876 201.559Z" stroke="url(#paint3_linear_1129_10601)" stroke-opacity="0.5"/>
<path d="M51.9482 201.559H365.876" stroke="url(#paint4_linear_1129_10601)" stroke-opacity="0.5"/>
<path d="M393.897 44.4687L236.933 201.559L393.897 358.649L550.861 201.559L393.897 44.4687Z" stroke="url(#paint5_linear_1129_10601)" stroke-opacity="0.35"/>
<g filter="url(#filter1_f_1129_10601)">
<path d="M393.897 44.4687L236.933 201.559L393.897 358.649L550.861 201.559L393.897 44.4687Z" fill="url(#paint6_linear_1129_10601)" fill-opacity="0.35"/>
</g>
<path d="M550.861 201.559L393.897 306.285L236.933 201.559L393.897 96.832L550.861 201.559Z" stroke="url(#paint7_linear_1129_10601)" stroke-opacity="0.35"/>
<path d="M550.861 201.559L393.897 253.922L236.933 201.559L393.897 149.195L550.861 201.559Z" stroke="url(#paint8_linear_1129_10601)" stroke-opacity="0.35"/>
<path d="M236.933 201.559H550.861" stroke="url(#paint9_linear_1129_10601)" stroke-opacity="0.35"/>
<ellipse cx="208.736" cy="358.746" rx="3.25206" ry="3.25467" fill="#3237B8"/>
<ellipse cx="208.736" cy="305.674" rx="3.25206" ry="3.25467" fill="#304AB8"/>
<ellipse cx="208.736" cy="253.837" rx="3.25206" ry="3.25467" fill="#2D60B8"/>
<ellipse cx="208.736" cy="201.383" rx="3.25206" ry="3.25467" fill="#3796EB"/>
<ellipse cx="208.736" cy="148.928" rx="3.25206" ry="3.25467" fill="#2BB1E3"/>
<ellipse cx="208.736" cy="97.0916" rx="3.25206" ry="3.25467" fill="#29DBF2"/>
<ellipse cx="208.736" cy="45.2547" rx="3.25206" ry="3.25467" fill="#24F7F0"/>
<ellipse cx="3.25206" cy="3.25467" rx="3.25206" ry="3.25467" transform="matrix(1 0 0 -1 391.086 360.766)" fill="#8D3AEB"/>
<ellipse cx="3.25206" cy="3.25467" rx="3.25206" ry="3.25467" transform="matrix(1 0 0 -1 391.086 308.929)" fill="#9731D9"/>
<ellipse cx="3.25206" cy="3.25467" rx="3.25206" ry="3.25467" transform="matrix(1 0 0 -1 391.086 257.092)" fill="#8B30D1"/>
<ellipse cx="3.25206" cy="3.25467" rx="3.25206" ry="3.25467" transform="matrix(1 0 0 -1 391.086 204.021)" fill="#7027A8"/>
<ellipse cx="3.25206" cy="3.25467" rx="3.25206" ry="3.25467" transform="matrix(1 0 0 -1 391.086 152.184)" fill="#611F8A"/>
<ellipse cx="3.25206" cy="3.25467" rx="3.25206" ry="3.25467" transform="matrix(1 0 0 -1 391.086 100.347)" fill="#611B7A"/>
<ellipse cx="3.25206" cy="3.25467" rx="3.25206" ry="3.25467" transform="matrix(1 0 0 -1 391.086 48.5098)" fill="#6C1770"/>
<line x1="89.9121" y1="329.393" x2="69.814" y2="329.393" stroke="url(#paint10_linear_1129_10601)"/>
<line x1="49.7158" y1="265.874" x2="9.51966" y2="265.874" stroke="url(#paint11_linear_1129_10601)"/>
<line x1="20.0977" y1="202.355" x2="-0.000421508" y2="202.355" stroke="url(#paint12_linear_1129_10601)"/>
<line x1="49.7158" y1="138.837" x2="9.51966" y2="138.837" stroke="url(#paint13_linear_1129_10601)"/>
<line x1="89.9121" y1="75.3184" x2="69.814" y2="75.3184" stroke="url(#paint14_linear_1129_10601)"/>
<line y1="-0.5" x2="20.0981" y2="-0.5" transform="matrix(1 3.1812e-08 3.1761e-08 -1 514.088 328.893)" stroke="url(#paint15_linear_1129_10601)"/>
<line y1="-0.5" x2="40.1962" y2="-0.5" transform="matrix(1 3.1812e-08 3.1761e-08 -1 554.284 265.374)" stroke="url(#paint16_linear_1129_10601)"/>
<line y1="-0.5" x2="20.0981" y2="-0.5" transform="matrix(1 3.1812e-08 3.1761e-08 -1 583.902 201.855)" stroke="url(#paint17_linear_1129_10601)"/>
<line y1="-0.5" x2="40.1962" y2="-0.5" transform="matrix(1 3.1812e-08 3.1761e-08 -1 554.284 138.337)" stroke="url(#paint18_linear_1129_10601)"/>
<line y1="-0.5" x2="20.0981" y2="-0.5" transform="matrix(1 3.1812e-08 3.1761e-08 -1 514.088 74.8184)" stroke="url(#paint19_linear_1129_10601)"/>
<defs>
<filter id="filter0_f_1129_10601" x="7.94824" y="0.46875" width="401.928" height="402.18" filterUnits="userSpaceOnUse" color-interpolation-filters="sRGB">
<feFlood flood-opacity="0" result="BackgroundImageFix"/>
<feBlend mode="normal" in="SourceGraphic" in2="BackgroundImageFix" result="shape"/>
<feGaussianBlur stdDeviation="22" result="effect1_foregroundBlur_1129_10601"/>
</filter>
<filter id="filter1_f_1129_10601" x="192.933" y="0.46875" width="401.928" height="402.18" filterUnits="userSpaceOnUse" color-interpolation-filters="sRGB">
<feFlood flood-opacity="0" result="BackgroundImageFix"/>
<feBlend mode="normal" in="SourceGraphic" in2="BackgroundImageFix" result="shape"/>
<feGaussianBlur stdDeviation="22" result="effect1_foregroundBlur_1129_10601"/>
</filter>
<linearGradient id="paint0_linear_1129_10601" x1="207.843" y1="44.3213" x2="209.348" y2="358.649" gradientUnits="userSpaceOnUse">
<stop stop-color="#23FFF2"/>
<stop offset="1" stop-color="#4642FF" stop-opacity="0.5"/>
</linearGradient>
<linearGradient id="paint1_linear_1129_10601" x1="208.594" y1="44.3176" x2="208.594" y2="358.649" gradientUnits="userSpaceOnUse">
<stop stop-color="#23FFF2"/>
<stop offset="0.896571" stop-color="#4642FF" stop-opacity="0.5"/>
</linearGradient>
<linearGradient id="paint2_linear_1129_10601" x1="208.594" y1="44.3176" x2="208.594" y2="358.649" gradientUnits="userSpaceOnUse">
<stop stop-color="#23FFF2"/>
<stop offset="1" stop-color="#4642FF" stop-opacity="0.5"/>
</linearGradient>
<linearGradient id="paint3_linear_1129_10601" x1="208.594" y1="44.3176" x2="208.594" y2="358.649" gradientUnits="userSpaceOnUse">
<stop stop-color="#23FFF2"/>
<stop offset="1" stop-color="#4642FF" stop-opacity="0.5"/>
</linearGradient>
<linearGradient id="paint4_linear_1129_10601" x1="208.594" y1="44.3176" x2="208.594" y2="358.649" gradientUnits="userSpaceOnUse">
<stop stop-color="#23FFF2"/>
<stop offset="1" stop-color="#4642FF" stop-opacity="0.5"/>
</linearGradient>
<linearGradient id="paint5_linear_1129_10601" x1="315.415" y1="123.014" x2="472.505" y2="279.978" gradientUnits="userSpaceOnUse">
<stop stop-color="#FF2ADD"/>
<stop offset="1" stop-color="#4642FF" stop-opacity="0.5"/>
</linearGradient>
<linearGradient id="paint6_linear_1129_10601" x1="393.499" y1="358.534" x2="393.499" y2="44.1174" gradientUnits="userSpaceOnUse">
<stop stop-color="#FF2ADD"/>
<stop offset="1" stop-color="#4642FF" stop-opacity="0.5"/>
</linearGradient>
<linearGradient id="paint7_linear_1129_10601" x1="315.415" y1="123.014" x2="472.505" y2="279.978" gradientUnits="userSpaceOnUse">
<stop stop-color="#FF2ADD"/>
<stop offset="1" stop-color="#4642FF" stop-opacity="0.5"/>
</linearGradient>
<linearGradient id="paint8_linear_1129_10601" x1="315.415" y1="123.014" x2="472.505" y2="279.978" gradientUnits="userSpaceOnUse">
<stop stop-color="#FF2ADD"/>
<stop offset="1" stop-color="#4642FF" stop-opacity="0.5"/>
</linearGradient>
<linearGradient id="paint9_linear_1129_10601" x1="315.415" y1="123.014" x2="472.505" y2="279.978" gradientUnits="userSpaceOnUse">
<stop stop-color="#FF2ADD"/>
<stop offset="1" stop-color="#4642FF" stop-opacity="0.5"/>
</linearGradient>
<linearGradient id="paint10_linear_1129_10601" x1="69.814" y1="328.393" x2="89.9121" y2="328.393" gradientUnits="userSpaceOnUse">
<stop stop-color="#B66AFF" stop-opacity="0"/>
<stop offset="1" stop-color="#B66AFF"/>
</linearGradient>
<linearGradient id="paint11_linear_1129_10601" x1="9.51966" y1="264.874" x2="49.7158" y2="264.874" gradientUnits="userSpaceOnUse">
<stop stop-color="#B66AFF" stop-opacity="0"/>
<stop offset="1" stop-color="#B66AFF"/>
</linearGradient>
<linearGradient id="paint12_linear_1129_10601" x1="-0.00042154" y1="201.355" x2="20.0977" y2="201.355" gradientUnits="userSpaceOnUse">
<stop stop-color="#B66AFF" stop-opacity="0"/>
<stop offset="1" stop-color="#B66AFF"/>
</linearGradient>
<linearGradient id="paint13_linear_1129_10601" x1="9.51966" y1="137.837" x2="49.7158" y2="137.837" gradientUnits="userSpaceOnUse">
<stop stop-color="#B66AFF" stop-opacity="0"/>
<stop offset="1" stop-color="#B66AFF"/>
</linearGradient>
<linearGradient id="paint14_linear_1129_10601" x1="69.814" y1="74.3184" x2="89.9121" y2="74.3184" gradientUnits="userSpaceOnUse">
<stop stop-color="#B66AFF" stop-opacity="0"/>
<stop offset="1" stop-color="#B66AFF"/>
</linearGradient>
<linearGradient id="paint15_linear_1129_10601" x1="20.0981" y1="0.5" x2="0" y2="0.5" gradientUnits="userSpaceOnUse">
<stop stop-color="#2BB1E3" stop-opacity="0"/>
<stop offset="1" stop-color="#2BB1E3"/>
</linearGradient>
<linearGradient id="paint16_linear_1129_10601" x1="40.1962" y1="0.5" x2="0" y2="0.5" gradientUnits="userSpaceOnUse">
<stop stop-color="#2BB1E3" stop-opacity="0"/>
<stop offset="1" stop-color="#2BB1E3"/>
</linearGradient>
<linearGradient id="paint17_linear_1129_10601" x1="20.0981" y1="0.5" x2="0" y2="0.5" gradientUnits="userSpaceOnUse">
<stop stop-color="#2BB1E3" stop-opacity="0"/>
<stop offset="1" stop-color="#2BB1E3"/>
</linearGradient>
<linearGradient id="paint18_linear_1129_10601" x1="40.1962" y1="0.5" x2="0" y2="0.5" gradientUnits="userSpaceOnUse">
<stop stop-color="#2BB1E3" stop-opacity="0"/>
<stop offset="1" stop-color="#2BB1E3"/>
</linearGradient>
<linearGradient id="paint19_linear_1129_10601" x1="20.0981" y1="0.5" x2="0" y2="0.5" gradientUnits="userSpaceOnUse">
<stop stop-color="#2BB1E3" stop-opacity="0"/>
<stop offset="1" stop-color="#2BB1E3"/>
</linearGradient>
</defs>
</svg>
