<svg width="488" height="439" viewBox="0 0 488 439" fill="none" xmlns="http://www.w3.org/2000/svg">
<path d="M121.925 219.378L436.632 62.124L436.632 376.632L121.925 219.378Z" stroke="url(#paint0_linear_1129_10814)" stroke-width="0.5"/>
<path d="M121.926 219.378L174.029 122.526L174.029 316.23L121.926 219.378Z" stroke="url(#paint1_linear_1129_10814)" stroke-width="0.5"/>
<path d="M121.925 219.378L227.175 94.4082L227.175 344.348L121.925 219.378Z" stroke="url(#paint2_linear_1129_10814)" stroke-width="0.5"/>
<path d="M121.926 219.378L279.279 81.9111L279.279 356.845L121.926 219.378Z" stroke="url(#paint3_linear_1129_10814)" stroke-width="0.5"/>
<path d="M121.926 219.378L331.383 74.6211L331.383 364.135L121.926 219.378Z" stroke="url(#paint4_linear_1129_10814)" stroke-width="0.5"/>
<path d="M121.925 219.378L384.528 70.4551L384.528 368.3L121.925 219.378Z" stroke="url(#paint5_linear_1129_10814)" stroke-width="0.5"/>
<g filter="url(#filter0_f_1129_10814)">
<path d="M113.587 219.378L425.168 62.124L425.168 376.632L113.587 219.378Z" fill="url(#paint6_linear_1129_10814)"/>
</g>
<ellipse cx="174.692" cy="122.149" rx="2.74843" ry="2.74625" fill="#2671AF"/>
<ellipse cx="226.795" cy="94.0304" rx="2.74843" ry="2.74625" fill="#2571AD"/>
<ellipse cx="278.9" cy="82.5744" rx="2.74843" ry="2.74625" fill="#246FAA"/>
<ellipse cx="332.045" cy="74.2433" rx="2.74843" ry="2.74625" fill="#246EA9"/>
<ellipse cx="384.149" cy="70.0773" rx="2.74843" ry="2.74625" fill="#246CA6"/>
<ellipse cx="436.253" cy="61.7463" rx="2.74843" ry="2.74625" fill="#2571AF"/>
<ellipse cx="436.253" cy="376.254" rx="2.74843" ry="2.74625" fill="#22EDE2"/>
<ellipse cx="384.149" cy="367.922" rx="2.74843" ry="2.74625" fill="#20DBD3"/>
<ellipse cx="331.002" cy="363.757" rx="2.74843" ry="2.74625" fill="#21E1D7"/>
<ellipse cx="278.9" cy="356.467" rx="2.74843" ry="2.74625" fill="#22E1D8"/>
<ellipse cx="226.795" cy="343.97" rx="2.74843" ry="2.74625" fill="#21E3DC"/>
<ellipse cx="173.65" cy="315.852" rx="2.74843" ry="2.74625" fill="#22E4DE"/>
<path d="M18.7578 219.066L28.6505 262.5M18.7578 219.066L56.4391 297.269M18.7578 219.066L96.5661 316.487M18.7578 219.066L141.028 316.487M18.7578 219.066L181.155 297.269M18.7578 219.066L208.944 262.5M18.7578 219.066L218.836 219.066M18.7578 219.066L208.944 175.743M18.7578 219.066L181.155 140.862M18.7578 219.066L141.028 121.645M18.7578 219.066L96.5661 121.645M18.7578 219.066L56.4391 140.862M18.7578 219.066L28.6505 175.743" stroke="url(#paint7_linear_1129_10814)" stroke-miterlimit="10"/>
<mask id="mask0_1129_10814" style="mask-type:alpha" maskUnits="userSpaceOnUse" x="0" y="96" width="244" height="251">
<rect y="96.4912" width="243.846" height="249.94" fill="url(#paint8_linear_1129_10814)"/>
</mask>
<g mask="url(#mask0_1129_10814)">
<g filter="url(#filter1_f_1129_10814)">
<path d="M19.7998 219.066L29.6925 262.5M19.7998 219.066L57.4811 297.269M19.7998 219.066L97.6081 316.487M19.7998 219.066L142.07 316.487M19.7998 219.066L182.197 297.269M19.7998 219.066L209.986 262.5M19.7998 219.066L219.878 219.066M19.7998 219.066L209.986 175.743M19.7998 219.066L182.197 140.862M19.7998 219.066L142.07 121.645M19.7998 219.066L97.6081 121.645M19.7998 219.066L57.4811 140.862M19.7998 219.066L29.6925 175.743" stroke="url(#paint9_linear_1129_10814)" stroke-miterlimit="10"/>
</g>
<g filter="url(#filter2_f_1129_10814)">
<path d="M19.7998 219.066L29.6925 262.5M19.7998 219.066L57.4811 297.269M19.7998 219.066L97.6081 316.487M19.7998 219.066L142.07 316.487M19.7998 219.066L182.197 297.269M19.7998 219.066L209.986 262.5M19.7998 219.066L219.878 219.066M19.7998 219.066L209.986 175.743M19.7998 219.066L182.197 140.862M19.7998 219.066L142.07 121.645M19.7998 219.066L97.6081 121.645M19.7998 219.066L57.4811 140.862M19.7998 219.066L29.6925 175.743" stroke="url(#paint10_linear_1129_10814)" stroke-miterlimit="10"/>
</g>
<g filter="url(#filter3_f_1129_10814)">
<path d="M19.7998 219.066L29.6925 262.5M19.7998 219.066L57.4811 297.269M19.7998 219.066L97.6081 316.487M19.7998 219.066L142.07 316.487M19.7998 219.066L182.197 297.269M19.7998 219.066L209.986 262.5M19.7998 219.066L219.878 219.066M19.7998 219.066L209.986 175.743M19.7998 219.066L182.197 140.862M19.7998 219.066L142.07 121.645M19.7998 219.066L97.6081 121.645M19.7998 219.066L57.4811 140.862M19.7998 219.066L29.6925 175.743" stroke="url(#paint11_linear_1129_10814)" stroke-miterlimit="10"/>
</g>
<g filter="url(#filter4_f_1129_10814)">
<path d="M19.7998 219.066L29.6925 262.5M19.7998 219.066L57.4811 297.269M19.7998 219.066L97.6081 316.487M19.7998 219.066L142.07 316.487M19.7998 219.066L182.197 297.269M19.7998 219.066L209.986 262.5M19.7998 219.066L219.878 219.066M19.7998 219.066L209.986 175.743M19.7998 219.066L182.197 140.862M19.7998 219.066L142.07 121.645M19.7998 219.066L97.6081 121.645M19.7998 219.066L57.4811 140.862M19.7998 219.066L29.6925 175.743" stroke="url(#paint12_linear_1129_10814)" stroke-miterlimit="10"/>
</g>
<g filter="url(#filter5_f_1129_10814)">
<path d="M19.7998 219.066L29.6925 262.5M19.7998 219.066L57.4811 297.269M19.7998 219.066L97.6081 316.487M19.7998 219.066L142.07 316.487M19.7998 219.066L182.197 297.269M19.7998 219.066L209.986 262.5M19.7998 219.066L219.878 219.066M19.7998 219.066L209.986 175.743M19.7998 219.066L182.197 140.862M19.7998 219.066L142.07 121.645M19.7998 219.066L97.6081 121.645M19.7998 219.066L57.4811 140.862M19.7998 219.066L29.6925 175.743" stroke="url(#paint13_linear_1129_10814)" stroke-miterlimit="10"/>
</g>
</g>
<defs>
<filter id="filter0_f_1129_10814" x="51.5879" y="0.124023" width="435.58" height="438.508" filterUnits="userSpaceOnUse" color-interpolation-filters="sRGB">
<feFlood flood-opacity="0" result="BackgroundImageFix"/>
<feBlend mode="normal" in="SourceGraphic" in2="BackgroundImageFix" result="shape"/>
<feGaussianBlur stdDeviation="31" result="effect1_foregroundBlur_1129_10814"/>
</filter>
<filter id="filter1_f_1129_10814" x="11.2871" y="113.254" width="216.591" height="211.624" filterUnits="userSpaceOnUse" color-interpolation-filters="sRGB">
<feFlood flood-opacity="0" result="BackgroundImageFix"/>
<feBlend mode="normal" in="SourceGraphic" in2="BackgroundImageFix" result="shape"/>
<feGaussianBlur stdDeviation="4" result="effect1_foregroundBlur_1129_10814"/>
</filter>
<filter id="filter2_f_1129_10814" x="11.2871" y="113.254" width="216.591" height="211.624" filterUnits="userSpaceOnUse" color-interpolation-filters="sRGB">
<feFlood flood-opacity="0" result="BackgroundImageFix"/>
<feBlend mode="normal" in="SourceGraphic" in2="BackgroundImageFix" result="shape"/>
<feGaussianBlur stdDeviation="4" result="effect1_foregroundBlur_1129_10814"/>
</filter>
<filter id="filter3_f_1129_10814" x="11.2871" y="113.254" width="216.591" height="211.624" filterUnits="userSpaceOnUse" color-interpolation-filters="sRGB">
<feFlood flood-opacity="0" result="BackgroundImageFix"/>
<feBlend mode="normal" in="SourceGraphic" in2="BackgroundImageFix" result="shape"/>
<feGaussianBlur stdDeviation="4" result="effect1_foregroundBlur_1129_10814"/>
</filter>
<filter id="filter4_f_1129_10814" x="11.2871" y="113.254" width="216.591" height="211.624" filterUnits="userSpaceOnUse" color-interpolation-filters="sRGB">
<feFlood flood-opacity="0" result="BackgroundImageFix"/>
<feBlend mode="normal" in="SourceGraphic" in2="BackgroundImageFix" result="shape"/>
<feGaussianBlur stdDeviation="4" result="effect1_foregroundBlur_1129_10814"/>
</filter>
<filter id="filter5_f_1129_10814" x="11.2871" y="113.254" width="216.591" height="211.624" filterUnits="userSpaceOnUse" color-interpolation-filters="sRGB">
<feFlood flood-opacity="0" result="BackgroundImageFix"/>
<feBlend mode="normal" in="SourceGraphic" in2="BackgroundImageFix" result="shape"/>
<feGaussianBlur stdDeviation="4" result="effect1_foregroundBlur_1129_10814"/>
</filter>
<linearGradient id="paint0_linear_1129_10814" x1="437.102" y1="376.464" x2="122.443" y2="61.6061" gradientUnits="userSpaceOnUse">
<stop stop-color="#23FFF2"/>
<stop offset="1" stop-color="#4642FF" stop-opacity="0.5"/>
</linearGradient>
<linearGradient id="paint1_linear_1129_10814" x1="174.107" y1="316.127" x2="76.884" y2="289.975" gradientUnits="userSpaceOnUse">
<stop stop-color="#23FFF2"/>
<stop offset="1" stop-color="#4642FF" stop-opacity="0.5"/>
</linearGradient>
<linearGradient id="paint2_linear_1129_10814" x1="227.332" y1="344.215" x2="48.4517" y2="268.888" gradientUnits="userSpaceOnUse">
<stop stop-color="#23FFF2"/>
<stop offset="1" stop-color="#4642FF" stop-opacity="0.5"/>
</linearGradient>
<linearGradient id="paint3_linear_1129_10814" x1="279.514" y1="356.699" x2="42.3446" y2="220.959" gradientUnits="userSpaceOnUse">
<stop stop-color="#23FFF2"/>
<stop offset="1" stop-color="#4642FF" stop-opacity="0.5"/>
</linearGradient>
<linearGradient id="paint4_linear_1129_10814" x1="331.696" y1="363.981" x2="56.5813" y2="164.941" gradientUnits="userSpaceOnUse">
<stop stop-color="#23FFF2"/>
<stop offset="1" stop-color="#4642FF" stop-opacity="0.5"/>
</linearGradient>
<linearGradient id="paint5_linear_1129_10814" x1="384.921" y1="368.141" x2="89.2799" y2="107.482" gradientUnits="userSpaceOnUse">
<stop stop-color="#23FFF2"/>
<stop offset="1" stop-color="#4642FF" stop-opacity="0.5"/>
</linearGradient>
<linearGradient id="paint6_linear_1129_10814" x1="374.106" y1="363.093" x2="233.825" y2="129.056" gradientUnits="userSpaceOnUse">
<stop stop-color="#23FFF2"/>
<stop offset="1" stop-color="#4642FF" stop-opacity="0.5"/>
</linearGradient>
<linearGradient id="paint7_linear_1129_10814" x1="18.7578" y1="219.399" x2="218.835" y2="219.963" gradientUnits="userSpaceOnUse">
<stop stop-color="#ED30B8"/>
<stop offset="1" stop-color="#FF8F3F"/>
</linearGradient>
<linearGradient id="paint8_linear_1129_10814" x1="243.846" y1="221.461" x2="0" y2="221.461" gradientUnits="userSpaceOnUse">
<stop stop-color="#D9D9D9"/>
<stop offset="0.285" stop-color="#D9D9D9"/>
<stop offset="0.9999" stop-color="#D9D9D9" stop-opacity="0"/>
<stop offset="1" stop-color="#D9D9D9" stop-opacity="0"/>
</linearGradient>
<linearGradient id="paint9_linear_1129_10814" x1="19.7998" y1="219.399" x2="219.877" y2="219.963" gradientUnits="userSpaceOnUse">
<stop stop-color="#ED30B8"/>
<stop offset="1" stop-color="#FF8F3F"/>
</linearGradient>
<linearGradient id="paint10_linear_1129_10814" x1="19.7998" y1="219.399" x2="219.877" y2="219.963" gradientUnits="userSpaceOnUse">
<stop stop-color="#ED30B8"/>
<stop offset="1" stop-color="#FF8F3F"/>
</linearGradient>
<linearGradient id="paint11_linear_1129_10814" x1="19.7998" y1="219.399" x2="219.877" y2="219.963" gradientUnits="userSpaceOnUse">
<stop stop-color="#ED30B8"/>
<stop offset="1" stop-color="#FF8F3F"/>
</linearGradient>
<linearGradient id="paint12_linear_1129_10814" x1="19.7998" y1="219.399" x2="219.877" y2="219.963" gradientUnits="userSpaceOnUse">
<stop stop-color="#ED30B8"/>
<stop offset="1" stop-color="#FF8F3F"/>
</linearGradient>
<linearGradient id="paint13_linear_1129_10814" x1="19.7998" y1="219.399" x2="219.877" y2="219.963" gradientUnits="userSpaceOnUse">
<stop stop-color="#ED30B8"/>
<stop offset="1" stop-color="#FF8F3F"/>
</linearGradient>
</defs>
</svg>
